<svg xmlns="http://www.w3.org/2000/svg" viewBox="0 0 425.16 176.6"><defs><style>.cls-1{fill:#e09632;}.cls-2{fill:#579b74;}.cls-3{fill:#fff;}</style></defs><title>Asset 9</title><g id="Layer_2" data-name="Layer 2"><g id="Layer_2-2" data-name="Layer 2"><path class="cls-1" d="M349.63,142.22c1.28-7.17-.37-13.36-6.11-18.14-.53-.44-.49-.64,0-1,3.29-2.94,7.06-3.16,11-1.69,4.28,1.61,6.95,4.94,8.81,9a27.34,27.34,0,0,1,2.38,12.91c-.58,12.2-5.39,22.32-15.15,29.86a15.83,15.83,0,0,1-10.5,3.5,17.72,17.72,0,0,1-9.66-3.56c-7.15-5.06-11.47-12.07-13.87-20.36a34.9,34.9,0,0,1-1.36-12.93c.52-5.64,2.44-10.63,7-14.33a16.26,16.26,0,0,1,22.52,2.21,22.11,22.11,0,0,1,5.05,13.84C349.64,141.71,349.63,142,349.63,142.22Z"/><path class="cls-2" d="M343.14,111.62a17.3,17.3,0,0,1-.82,8.93c-.69,1.87-.67,1.87-2.45,1a12.28,12.28,0,0,0-1.4-.6c-.53-.16-.69-.3-.31-.84a9.8,9.8,0,0,0-1-12.47c-.36-.33-.26-.53,0-.8a7,7,0,0,1,3.54-1.72.83.83,0,0,1,1.07.59c1.85,4.3,4.92,6.12,9.55,5.72a14.52,14.52,0,0,0,4.49-1.17,58.66,58.66,0,0,1,7.85-3.19c3.42-.92,6.78-1,10,.75a12.28,12.28,0,0,1,5.75,7A28.14,28.14,0,0,1,378,137.56c-.34.68-.66.76-1.36.44a21.58,21.58,0,0,1-9.83-9.41c-1.85-3.26-3.32-6.69-4.92-10.06a7.71,7.71,0,0,0-7.73-4.75,24.6,24.6,0,0,1-7.91-.82,19,19,0,0,1-3.05-1.46c-.06-.06-.13-.11-.19,0S343.11,111.58,343.14,111.62Z"/><path class="cls-2" d="M57,121.86H38.1L49.57,89.62H71.78Z"/><path class="cls-3" d="M111.24,171.38l-2.7-9.8H90.28l-2.79,9.8H70L87.68,109h23.46l17.6,62.39ZM94.94,145h8.94l-4.47-15.87Z"/><path class="cls-3" d="M177.73,137.84a19.18,19.18,0,0,1,4.7,6.18,18.17,18.17,0,0,1,.18,15.17,19.11,19.11,0,0,1-4.24,6,19.59,19.59,0,0,1-6.22,4,19.87,19.87,0,0,1-7.61,1.46H135V108.9h25.82a20.36,20.36,0,0,1,7.74,1.5,21,21,0,0,1,6.45,4.06,18.88,18.88,0,0,1,4.38,6,17.08,17.08,0,0,1-1.7,17.38Zm-25.72-14v7.85h8.85A4.8,4.8,0,0,0,164,130.5a3.4,3.4,0,0,0,0-5.53,4.86,4.86,0,0,0-3.09-1.16Zm12.44,31.68a3.93,3.93,0,0,0,2.86-1.19,3.8,3.8,0,0,0,1.2-2.78,3.67,3.67,0,0,0-1.2-2.74,4,4,0,0,0-2.86-1.15H152v7.86Z"/><path class="cls-3" d="M227.41,148.43,236,170.67H219.21l-7-16.59h-6.27v16.59H188.79V108.9h23a23.87,23.87,0,0,1,9.19,1.76,24.29,24.29,0,0,1,7.53,4.85,23,23,0,0,1,5.08,7.2,21.78,21.78,0,0,1-.32,18.26A22.85,22.85,0,0,1,227.41,148.43ZM211.74,138.1a6.79,6.79,0,0,0,4.89-1.94,6.4,6.4,0,0,0,0-9.35,6.83,6.83,0,0,0-4.89-1.94h-5.81V138.1Z"/><path class="cls-3" d="M257.29,170.67H240.51V108.9h16.78Z"/><path class="cls-3" d="M287.34,172.34a25.26,25.26,0,0,1-9.87-1.94,26.11,26.11,0,0,1-8.06-5.25,24.79,24.79,0,0,1-5.49-7.77,22.61,22.61,0,0,1-2-9.48V131.57a22.65,22.65,0,0,1,2-9.48,24.91,24.91,0,0,1,5.49-7.77,26.48,26.48,0,0,1,8.06-5.25,25.26,25.26,0,0,1,9.87-1.94,26,26,0,0,1,10,1.93,26.28,26.28,0,0,1,8.11,5.22,24.78,24.78,0,0,1,5.49,7.74,22.53,22.53,0,0,1,2,9.47H296.19a7.89,7.89,0,0,0-2.59-5.92,8.74,8.74,0,0,0-6.26-2.47,8.42,8.42,0,0,0-6.13,2.49,8,8,0,0,0-2.54,5.94v16.41a8,8,0,0,0,2.54,5.95,8.45,8.45,0,0,0,6.13,2.48,8.69,8.69,0,0,0,6.26-2.47,7.88,7.88,0,0,0,2.59-5.91H313a22.57,22.57,0,0,1-2,9.47,24.62,24.62,0,0,1-5.49,7.73,26.28,26.28,0,0,1-8.11,5.22A25.79,25.79,0,0,1,287.34,172.34Z"/><path class="cls-3" d="M425.16,108.9v16H407.64v45.8H390.87v-45.8H373.35v-16Z"/><path class="cls-3" d="M17.77,154.82H42.55v15.85H1.12V109.39H17.77Z"/><path class="cls-3" d="M65.12,0V20.08h-22V77.64H22V20.08H0V0Z"/><path class="cls-3" d="M159.7,0V20.08h-22V77.64H116.6V20.08h-22V0Z"/><path class="cls-3" d="M99.94,27.87a28.92,28.92,0,0,0-9-6.19,27.79,27.79,0,0,0-22,0A28.92,28.92,0,0,0,51.7,48.31a28.23,28.23,0,0,0,2.21,11.2,28.81,28.81,0,0,0,15,15.3,27.68,27.68,0,0,0,22,0,28.81,28.81,0,0,0,15-15.3,28.23,28.23,0,0,0,2.21-11.2,29.07,29.07,0,0,0-8.26-20.44ZM93.75,54.28a15.9,15.9,0,0,1-8,8.29,14.24,14.24,0,0,1-11.58,0,15.9,15.9,0,0,1-8-8.29,16.12,16.12,0,0,1,0-12.06,15.87,15.87,0,0,1,8-8.3,14.24,14.24,0,0,1,11.58,0,15.87,15.87,0,0,1,8,8.3,16.12,16.12,0,0,1,0,12.06Z"/><path class="cls-3" d="M201.15,37.05a28.62,28.62,0,0,0-15-15.37,27.79,27.79,0,0,0-22,0,28.92,28.92,0,0,0-17.25,26.63,28.23,28.23,0,0,0,2.21,11.2,28.81,28.81,0,0,0,15,15.3,27.68,27.68,0,0,0,22,0,28.81,28.81,0,0,0,9-6.19,29.12,29.12,0,0,0,6.05-9.11,28.23,28.23,0,0,0,2.21-11.2A28.7,28.7,0,0,0,201.15,37.05ZM188.91,54.28a15.9,15.9,0,0,1-8,8.29,14.24,14.24,0,0,1-11.58,0,15.9,15.9,0,0,1-8-8.29,16.12,16.12,0,0,1,0-12.06,15.87,15.87,0,0,1,8-8.3,14.24,14.24,0,0,1,11.58,0,15.87,15.87,0,0,1,8,8.3,16.12,16.12,0,0,1,0,12.06Z"/></g></g></svg>