<svg xmlns="http://www.w3.org/2000/svg" viewBox="0 0 667.93 343.8"><defs><style>.cls-1{fill:#e5e6e7;}.cls-2{fill:#579c74;}.cls-3{fill:#313879;}.cls-4{fill:#e5a630;}.cls-5{fill:#fff;}.cls-6{fill:#332f30;}.cls-7{fill:#272525;}.cls-8{fill:#e6b3be;}.cls-9{fill:#79b0e1;stroke:#79b0e1;stroke-miterlimit:10;}.cls-10{fill:#e4a531;}.cls-11{fill:#313979;}.cls-12{fill:#e09632;}.cls-13{fill:#579b74;}</style></defs><title>Asset 16</title><g id="Layer_2" data-name="Layer 2"><g id="Layer_1-2" data-name="Layer 1"><ellipse class="cls-1" cx="120.15" cy="324.54" rx="114.09" ry="18.38"/><path class="cls-2" d="M131.73,72.21a48.7,48.7,0,0,0,2.34,25.36c2,5.3,1.89,5.32,6.94,2.94a30.13,30.13,0,0,1,4-1.7c1.52-.46,2-.86.88-2.39C138,85.24,139.7,69.58,148.74,61c1-1,.74-1.52-.12-2.28a20,20,0,0,0-10-4.89,2.38,2.38,0,0,0-3.05,1.68c-5.26,12.22-14,17.38-27.11,16.23a41.15,41.15,0,0,1-12.77-3.31c-7.37-3.17-14.48-6.95-22.29-9C63.64,56.77,54.11,56.58,45,61.51,36.9,65.89,31.64,72.9,28.65,81.36c-7.76,22-6.42,43.57,4,64.53,1,1.94,1.88,2.16,3.87,1.26,12.43-5.69,21.26-15.06,27.91-26.75,5.25-9.24,9.43-19,14-28.57,4.44-9.34,11.67-13.68,21.93-13.48,7.56.15,15.11,0,22.46-2.32,3.11-1,5.82-2.68,8.67-4.15.18-.19.38-.32.55,0C132,71.92,131.82,72.09,131.73,72.21Z"/><path class="cls-3" d="M237.35,104.51s-4.25.53-5.66-9,.17-12.21.17-12.21,5.49-.18,10.1,9.56c0,0,2.65,7.43-1.77,10.62,0,0,4.76,24-1.69,35.2s-11.23,12.9-24,14.1l-.12-3.35s7,2.39,17.08-5.49c0,0,7.53-5.74,7.41-22.58S237.35,104.51,237.35,104.51Z"/><path class="cls-3" d="M8.4,147.08s4.16-1,2.15-10.44-4.44-11.38-4.44-11.38S.91,127,0,137.74c0,0,.11,7.9,5.37,9.34,0,0,3.92,24.12,13.89,32.39s15,8.16,27.42,4.81l-1.06-3.17s-5.77,4.7-17.92.82c0,0-9.06-2.74-14.83-18.57S8.4,147.08,8.4,147.08Z"/><path class="cls-3" d="M81.68,316.32S69.84,315.19,67,326.66c0,0,7.33,2.45,19.18-1.88,0,0,4.73-2.33.13-7.13,0,0-9.22-11.11-8.46-24.23s7.89-24.74,17.67-29.79l-2.9-2.27s-12.06,9.09-15,18.49S72.47,303.08,81.68,316.32Z"/><path class="cls-3" d="M174.11,316.32s11.85-1.13,14.67,10.34c0,0-7.34,2.45-19.18-1.88,0,0-4.74-2.33-.13-7.13,0,0,9.21-11.11,8.45-24.23s-7.88-24.74-17.67-29.79l2.91-2.27s12.05,9.09,15,18.49S183.33,303.08,174.11,316.32Z"/><path class="cls-4" d="M140.27,96.46c10-10.73,23.45-10.47,36.41-5.6,14.2,5.34,23.08,16.41,29.24,29.83a90.89,90.89,0,0,1,7.91,42.86c-1.94,40.53-17.91,74.13-50.31,99.17-10.12,7.83-21.8,12.13-34.87,11.62-12-.47-22.47-5-32.08-11.81-23.74-16.8-38.09-40.09-46.06-67.62A115.7,115.7,0,0,1,46,152c1.73-18.72,8.09-35.31,23.12-47.58C96.13,83.23,140.27,96.46,140.27,96.46Z"/><path class="cls-5" d="M121.68,197.2a11.24,11.24,0,0,0,8.24,3.38c4.54.13,7.35-1.71,9.09-4.08-1.15-1.08-3.35-2-8.2-2.08C125.8,194.36,123.1,195.84,121.68,197.2Z"/><path class="cls-6" d="M141.84,186.88H118s-.17,6.26,3.68,10.32c1.42-1.36,4.12-2.84,9.13-2.78,4.85.05,7.05,1,8.2,2.08C142,192.46,141.84,186.88,141.84,186.88Z"/><circle class="cls-7" cx="94.87" cy="166.91" r="17.62"/><circle class="cls-5" cx="91.62" cy="163.08" r="6.93"/><circle class="cls-5" cx="105.38" cy="169.48" r="4.24"/><circle class="cls-5" cx="95.67" cy="176.65" r="2.5"/><path class="cls-7" d="M90.67,142.1a4.6,4.6,0,0,1,1.61-2.25,4.85,4.85,0,0,1,2.75-1,4.05,4.05,0,0,1,2.86,1,4.8,4.8,0,0,1,.93,1.09,5.33,5.33,0,0,1,.49,1.31c-.47-.17-.82-.4-1.2-.57a8.24,8.24,0,0,0-1.07-.43,4.81,4.81,0,0,0-1.94-.31A16.2,16.2,0,0,0,90.67,142.1Z"/><ellipse class="cls-8" cx="79.5" cy="194.24" rx="8.39" ry="6.2"/><circle class="cls-7" cx="165.43" cy="166.91" r="17.62"/><circle class="cls-5" cx="168.68" cy="163.08" r="6.93"/><circle class="cls-5" cx="154.91" cy="169.48" r="4.24"/><circle class="cls-5" cx="164.62" cy="176.65" r="2.5"/><path class="cls-7" d="M169.63,142.1a16.25,16.25,0,0,0-4.44-1.19,4.76,4.76,0,0,0-1.93.31,7.71,7.71,0,0,0-1.07.43c-.38.17-.73.4-1.2.57a5.33,5.33,0,0,1,.49-1.31,4.57,4.57,0,0,1,.93-1.09,4.05,4.05,0,0,1,2.86-1,4.91,4.91,0,0,1,2.75,1A4.6,4.6,0,0,1,169.63,142.1Z"/><ellipse class="cls-8" cx="180.79" cy="194.24" rx="8.39" ry="6.2"/><path class="cls-9" d="M348.3,26.15V.85h7.62c2.64,0,4.65.59,6,1.76A6.44,6.44,0,0,1,364,7.78a6.52,6.52,0,0,1-.82,3.28,4.94,4.94,0,0,1-2.29,2.07,4.59,4.59,0,0,1,2.64,2,6.48,6.48,0,0,1,1,3.61,7.24,7.24,0,0,1-2,5.53,8.16,8.16,0,0,1-5.71,1.91Zm4.49-14.7h3.31c2.26,0,3.4-1.1,3.4-3.15a3.15,3.15,0,0,0-.86-2.47,4,4,0,0,0-2.72-.76h-3.13Zm0,3.68V22h3.84a3.35,3.35,0,0,0,2.47-.88,3.25,3.25,0,0,0,.89-2.42c0-2.32-1-3.49-3.1-3.53Z"/><path class="cls-9" d="M385.56,14.07a17.34,17.34,0,0,1-1.14,6.55A9.67,9.67,0,0,1,381.17,25a8.44,8.44,0,0,1-9.68,0,9.7,9.7,0,0,1-3.29-4.31A17.07,17.07,0,0,1,367,14.21V13a17.41,17.41,0,0,1,1.16-6.58A9.77,9.77,0,0,1,371.45,2a8.45,8.45,0,0,1,9.67,0,9.71,9.71,0,0,1,3.28,4.36,17.34,17.34,0,0,1,1.16,6.56ZM381,12.92a12.1,12.1,0,0,0-1.22-6,4,4,0,0,0-7,0,11.87,11.87,0,0,0-1.24,6v1.23a12.23,12.23,0,0,0,1.22,6,3.86,3.86,0,0,0,3.53,2.14,3.81,3.81,0,0,0,3.47-2.06,12.18,12.18,0,0,0,1.22-6Z"/><path class="cls-9" d="M409,26.15h-4.48L395.83,9.5V26.15h-4.48V.85h4.48l8.75,16.68V.85H409Z"/><path class="cls-9" d="M421.58.85h4.48V18.36a9.38,9.38,0,0,1-.92,4.27,6.72,6.72,0,0,1-2.59,2.86,7.22,7.22,0,0,1-3.78,1,7.05,7.05,0,0,1-5.38-2,8.09,8.09,0,0,1-1.93-5.78H416a4.51,4.51,0,0,0,.67,2.74,2.49,2.49,0,0,0,2.12.89,2.41,2.41,0,0,0,2.05-1,4.79,4.79,0,0,0,.76-2.92Z"/><path class="cls-9" d="M447.63,14.07a17.34,17.34,0,0,1-1.14,6.55A9.67,9.67,0,0,1,443.24,25a8.44,8.44,0,0,1-9.68,0,9.7,9.7,0,0,1-3.29-4.31,17.07,17.07,0,0,1-1.18-6.46V13a17.41,17.41,0,0,1,1.16-6.58A9.77,9.77,0,0,1,433.52,2a8.45,8.45,0,0,1,9.67,0,9.71,9.71,0,0,1,3.28,4.36,17.34,17.34,0,0,1,1.16,6.56Zm-4.55-1.15a12.1,12.1,0,0,0-1.22-6,4,4,0,0,0-7,0,11.87,11.87,0,0,0-1.24,6v1.23a12.23,12.23,0,0,0,1.22,6,3.86,3.86,0,0,0,3.53,2.14,3.81,3.81,0,0,0,3.47-2.06,12.18,12.18,0,0,0,1.22-6Z"/><path class="cls-9" d="M467.2.85V17.51A9.3,9.3,0,0,1,465,24.08a7.9,7.9,0,0,1-6.1,2.42,8,8,0,0,1-6.05-2.35,9.07,9.07,0,0,1-2.29-6.45V.85H455v16.7a5.29,5.29,0,0,0,1,3.62,3.6,3.6,0,0,0,2.83,1.14q3.78,0,3.84-4.62V.85Z"/><path class="cls-9" d="M478.78,16.89h-3.57v9.26h-4.49V.85h8.09a8.25,8.25,0,0,1,5.95,2,7.44,7.44,0,0,1,2.09,5.64,8.68,8.68,0,0,1-1,4.32A6.86,6.86,0,0,1,483,15.57l4.71,10.34v.24h-4.81Zm-3.57-4.23h3.61a3.41,3.41,0,0,0,2.62-1,3.9,3.9,0,0,0,.92-2.76,4.2,4.2,0,0,0-.87-2.81,3.31,3.31,0,0,0-2.68-1h-3.6Z"/><path class="cls-9" d="M491.51,32.49l-2.26-1.37.54-1.13a10.11,10.11,0,0,0,1-4.22v-3.9h3.65l0,3.48a10.17,10.17,0,0,1-.84,3.89A10,10,0,0,1,491.51,32.49Z"/><path class="cls-9" d="M505.55,5.93,510,20.64l4.46-14.71h4.72V26.22h-3.6V20.67L516,11.1l-4.71,15.12h-2.47l-4.7-15.11.36,9.56v5.55h-3.59V5.93Z"/><path class="cls-9" d="M536.57,16.53a14.16,14.16,0,0,1-.91,5.26,7.8,7.8,0,0,1-2.61,3.48,6.76,6.76,0,0,1-7.76,0,7.68,7.68,0,0,1-2.64-3.46,13.63,13.63,0,0,1-.95-5.18v-1a13.81,13.81,0,0,1,.93-5.27,7.8,7.8,0,0,1,2.63-3.5,6.76,6.76,0,0,1,7.75,0,7.8,7.8,0,0,1,2.63,3.5,13.8,13.8,0,0,1,.93,5.26Zm-3.65-.92a9.74,9.74,0,0,0-1-4.85,3.21,3.21,0,0,0-5.6,0,9.61,9.61,0,0,0-1,4.8v1a9.83,9.83,0,0,0,1,4.82,3.1,3.1,0,0,0,2.83,1.72,3.06,3.06,0,0,0,2.78-1.65,9.73,9.73,0,0,0,1-4.82Z"/><path class="cls-9" d="M542.88,26.22h-3.6V5.93h3.6Z"/><path class="cls-9" d="M565.77,19.46a7.7,7.7,0,0,1-2.08,5.16,6.69,6.69,0,0,1-4.94,1.88,6.19,6.19,0,0,1-5.28-2.63,12,12,0,0,1-1.92-7.21V15.42a14,14,0,0,1,.88-5.16A7.56,7.56,0,0,1,555,6.84a6.38,6.38,0,0,1,3.83-1.19,6.52,6.52,0,0,1,4.86,1.88,8.27,8.27,0,0,1,2.14,5.28h-3.6a4.64,4.64,0,0,0-.94-2.85,3.17,3.17,0,0,0-2.46-.88,2.93,2.93,0,0,0-2.69,1.49,9.5,9.5,0,0,0-.92,4.65v1.54a10.18,10.18,0,0,0,.86,4.8,2.87,2.87,0,0,0,2.7,1.52,3.24,3.24,0,0,0,2.49-.88,4.41,4.41,0,0,0,.94-2.74Z"/><path class="cls-9" d="M568.78,12.16l-1.63-1.1a8.36,8.36,0,0,0,1.06-3.89V4.81H571V7a7.18,7.18,0,0,1-.6,2.72A7.51,7.51,0,0,1,568.78,12.16Z"/><path class="cls-9" d="M584,17.42h-6.9v5.44h8.1v3.36h-11.7V5.93h11.67V9.31h-8.07v4.84H584Z"/><path class="cls-9" d="M596.25,20.89a2.27,2.27,0,0,0-.72-1.81,8.68,8.68,0,0,0-2.59-1.34,17,17,0,0,1-3-1.39,5.69,5.69,0,0,1-3-5,5.46,5.46,0,0,1,.8-2.93,5.39,5.39,0,0,1,2.29-2,7.59,7.59,0,0,1,3.35-.72,6.88,6.88,0,0,1,3.33.79,5.58,5.58,0,0,1,2.27,2.22,6.52,6.52,0,0,1,.81,3.26h-3.6a3,3,0,0,0-.75-2.17A2.86,2.86,0,0,0,593.39,9a3,3,0,0,0-2,.65,2.15,2.15,0,0,0-.73,1.7,2,2,0,0,0,.85,1.66A8.83,8.83,0,0,0,594,14.25a10.49,10.49,0,0,1,4.47,2.66,5.79,5.79,0,0,1,1.4,4A5.19,5.19,0,0,1,598.14,25a6.75,6.75,0,0,1-4.61,1.5,7.91,7.91,0,0,1-3.67-.86,6,6,0,0,1-2.52-2.35,6.7,6.7,0,0,1-.87-3.45h3.61q0,3.35,3.45,3.35a3,3,0,0,0,2-.6A2.11,2.11,0,0,0,596.25,20.89Z"/><path class="cls-9" d="M615.3,9.31H610V26.22h-3.6V9.31h-5.27V5.93H615.3Z"/><path class="cls-9" d="M360,236.24H352v6.26h9.32v3.86H347.9V223h13.43v3.89H352v5.57H360Z"/><path class="cls-9" d="M370.82,231.06l3.77-8h4.76l-5.85,11.57,6,11.77h-4.81l-3.87-8.18L367,246.36h-4.81l6-11.77L362.3,223h4.76Z"/><path class="cls-9" d="M388.33,246.36V223h6.18a8.38,8.38,0,0,1,4.73,1.38,9.15,9.15,0,0,1,3.26,3.95,13.65,13.65,0,0,1,1.18,5.81v1.07a14,14,0,0,1-1.15,5.79,9.11,9.11,0,0,1-3.25,3.93,8.46,8.46,0,0,1-4.73,1.41Zm4.14-19.45V242.5h2a4.26,4.26,0,0,0,3.71-1.85,9.29,9.29,0,0,0,1.3-5.27v-1.24a9.52,9.52,0,0,0-1.26-5.39,4.23,4.23,0,0,0-3.71-1.84Z"/><path class="cls-9" d="M418.62,236.24h-7.94v6.26H420v3.86H406.54V223H420v3.89h-9.3v5.57h7.94Zm-4.31-19.53h4.34l-3.82,5h-3.24Z"/><path class="cls-9" d="M429.71,240.57,434.26,223h4.6l-7,23.34h-4.32l-7-23.34h4.59Z"/><path class="cls-9" d="M452.69,236.24h-7.94v6.26h9.32v3.86H440.61V223H454v3.89h-9.29v5.57h7.94Z"/><path class="cls-9" d="M460.49,242.5h8.78v3.86H456.35V223h4.14Z"/><path class="cls-9" d="M487.11,235.22a16,16,0,0,1-1.05,6,8.93,8.93,0,0,1-3,4,7.8,7.8,0,0,1-8.92,0,9,9,0,0,1-3-4,15.51,15.51,0,0,1-1.09-6v-1.16a16,16,0,0,1,1.07-6.07,8.9,8.9,0,0,1,3-4,7.76,7.76,0,0,1,8.92,0,8.9,8.9,0,0,1,3,4,16,16,0,0,1,1.07,6Zm-4.19-1.06a11.14,11.14,0,0,0-1.13-5.58,3.68,3.68,0,0,0-6.44,0,10.87,10.87,0,0,0-1.15,5.52v1.14a11.14,11.14,0,0,0,1.14,5.54,3.65,3.65,0,0,0,6.45.08,11.27,11.27,0,0,0,1.13-5.54Z"/><path class="cls-9" d="M494.11,238.14v8.22H490V223h7.84a8,8,0,0,1,4,1,6.44,6.44,0,0,1,2.64,2.73,8.55,8.55,0,0,1,.93,4,7.29,7.29,0,0,1-2,5.42,7.65,7.65,0,0,1-5.59,2Zm0-3.9h3.7a3.31,3.31,0,0,0,2.5-.9,3.57,3.57,0,0,0,.86-2.56,4.24,4.24,0,0,0-.87-2.78,3,3,0,0,0-2.4-1.09h-3.79Z"/><path class="cls-9" d="M512.19,238.14v8.22h-4.14V223h7.83a8,8,0,0,1,4,1,6.44,6.44,0,0,1,2.64,2.73,8.55,8.55,0,0,1,.92,4,7.25,7.25,0,0,1-2,5.42,7.63,7.63,0,0,1-5.59,2Zm0-3.9h3.69a3.3,3.3,0,0,0,2.5-.9,3.53,3.53,0,0,0,.87-2.56,4.24,4.24,0,0,0-.87-2.78,3,3,0,0,0-2.4-1.09h-3.79Z"/><path class="cls-9" d="M538.2,236.24h-7.94v6.26h9.32v3.86H526.12V223h13.43v3.89h-9.29v5.57h7.94Z"/><path class="cls-9" d="M557.06,223v15.37a8.58,8.58,0,0,1-2.06,6.06,7.29,7.29,0,0,1-5.63,2.23,7.37,7.37,0,0,1-5.59-2.16,8.42,8.42,0,0,1-2.11-6V223h4.14v15.4a4.93,4.93,0,0,0,.94,3.35,3.35,3.35,0,0,0,2.62,1q3.48,0,3.54-4.27V223Z"/><path class="cls-9" d="M567.74,237.81h-3.29v8.55h-4.14V223h7.46a7.64,7.64,0,0,1,5.49,1.84,6.86,6.86,0,0,1,1.93,5.21,8,8,0,0,1-.89,4,6.33,6.33,0,0,1-2.69,2.55l4.34,9.54v.22h-4.44Zm-3.29-3.89h3.34a3.15,3.15,0,0,0,2.41-.92,3.61,3.61,0,0,0,.85-2.54,3.85,3.85,0,0,0-.8-2.6,3.08,3.08,0,0,0-2.48-1h-3.32Z"/><path class="cls-9" d="M579,252.21,576.88,251l.5-1a9.31,9.31,0,0,0,1-3.89v-3.59h3.36v3.2a9.51,9.51,0,0,1-.77,3.59A9.26,9.26,0,0,1,579,252.21Z"/><path class="cls-9" d="M552.87,202.13h-7.76v-3.74h7.76Z"/><path class="cls-9" d="M385.42,201.23h-7.95v6.25h9.33v3.87H373.34V188h13.43v3.9h-9.3v5.56h7.95Z"/><path class="cls-9" d="M396.26,196.05,400,188h4.76l-5.85,11.58,6,11.77h-4.81l-3.87-8.18-3.86,8.18h-4.81l6-11.77L387.74,188h4.76Z"/><path class="cls-9" d="M413.77,211.35V188h7a8.34,8.34,0,0,1,5.55,1.63,6.74,6.74,0,0,1,1.13,7.79,4.61,4.61,0,0,1-2.11,1.92,4.21,4.21,0,0,1,2.43,1.81,6,6,0,0,1,.89,3.34,6.64,6.64,0,0,1-1.85,5.09,7.5,7.5,0,0,1-5.27,1.77Zm4.14-13.57H421c2.08,0,3.13-1,3.13-2.9a2.88,2.88,0,0,0-.8-2.28,3.68,3.68,0,0,0-2.5-.7h-2.89Zm0,3.4v6.3h3.54a3.1,3.1,0,0,0,2.28-.81,3,3,0,0,0,.82-2.23q0-3.21-2.85-3.26Z"/><path class="cls-9" d="M446.85,188v15.38a8.61,8.61,0,0,1-2.06,6.06,8.25,8.25,0,0,1-11.22.06,8.38,8.38,0,0,1-2.11-5.94V188h4.14v15.41a4.9,4.9,0,0,0,.94,3.34,3.33,3.33,0,0,0,2.61,1.05q3.5,0,3.55-4.26V188Z"/><path class="cls-9" d="M460.51,205.22a2.65,2.65,0,0,0-.83-2.09,10,10,0,0,0-3-1.54,20.06,20.06,0,0,1-3.4-1.59,6.58,6.58,0,0,1-3.42-5.79,6.41,6.41,0,0,1,.91-3.38,6.21,6.21,0,0,1,2.64-2.31,8.64,8.64,0,0,1,3.85-.84,7.9,7.9,0,0,1,3.84.91,6.37,6.37,0,0,1,2.61,2.56,7.5,7.5,0,0,1,.93,3.75h-4.14a3.48,3.48,0,0,0-.86-2.5,3.29,3.29,0,0,0-2.45-.89,3.4,3.4,0,0,0-2.35.75,2.51,2.51,0,0,0-.85,2,2.33,2.33,0,0,0,1,1.91,10.38,10.38,0,0,0,2.9,1.44,12.14,12.14,0,0,1,5.15,3.07,6.64,6.64,0,0,1,1.61,4.55,6,6,0,0,1-2,4.75,7.78,7.78,0,0,1-5.31,1.73,9,9,0,0,1-4.22-1,7,7,0,0,1-2.9-2.7,7.72,7.72,0,0,1-1-4h4.15q0,3.87,4,3.87a3.44,3.44,0,0,0,2.3-.7A2.4,2.4,0,0,0,460.51,205.22Z"/><path class="cls-9" d="M471.72,211.35h-4.14V188h4.14Z"/><path class="cls-9" d="M491.73,211.35H487.6L479.55,196v15.36h-4.14V188h4.14l8.06,15.4V188h4.12Z"/><path class="cls-9" d="M507.28,201.23h-7.94v6.25h9.32v3.87H495.21V188h13.43v3.9h-9.3v5.56h7.94Z"/><path class="cls-9" d="M521.36,205.22a2.65,2.65,0,0,0-.83-2.09,10,10,0,0,0-3-1.54,19.7,19.7,0,0,1-3.4-1.59,6.58,6.58,0,0,1-3.42-5.79,6.32,6.32,0,0,1,.91-3.38,6.16,6.16,0,0,1,2.64-2.31,8.64,8.64,0,0,1,3.85-.84,7.92,7.92,0,0,1,3.84.91,6.37,6.37,0,0,1,2.61,2.56,7.5,7.5,0,0,1,.93,3.75h-4.14a3.44,3.44,0,0,0-.87-2.5,3.26,3.26,0,0,0-2.44-.89,3.4,3.4,0,0,0-2.35.75,2.47,2.47,0,0,0-.85,2,2.33,2.33,0,0,0,1,1.91,10.24,10.24,0,0,0,2.9,1.44,12.14,12.14,0,0,1,5.15,3.07,6.64,6.64,0,0,1,1.61,4.55,6,6,0,0,1-2,4.75,7.8,7.8,0,0,1-5.31,1.73,9,9,0,0,1-4.22-1,6.9,6.9,0,0,1-2.9-2.7,7.72,7.72,0,0,1-1-4h4.15q0,3.87,4,3.87a3.44,3.44,0,0,0,2.3-.7A2.4,2.4,0,0,0,521.36,205.22Z"/><path class="cls-9" d="M538.58,205.22a2.65,2.65,0,0,0-.83-2.09,10,10,0,0,0-3-1.54,19.7,19.7,0,0,1-3.4-1.59,6.58,6.58,0,0,1-3.42-5.79,6.32,6.32,0,0,1,.91-3.38,6.16,6.16,0,0,1,2.64-2.31,8.64,8.64,0,0,1,3.85-.84,7.92,7.92,0,0,1,3.84.91,6.37,6.37,0,0,1,2.61,2.56,7.5,7.5,0,0,1,.93,3.75h-4.14a3.44,3.44,0,0,0-.87-2.5,3.26,3.26,0,0,0-2.44-.89,3.4,3.4,0,0,0-2.35.75,2.47,2.47,0,0,0-.85,2,2.33,2.33,0,0,0,1,1.91,10.24,10.24,0,0,0,2.9,1.44,12.14,12.14,0,0,1,5.15,3.07,6.64,6.64,0,0,1,1.61,4.55,6,6,0,0,1-2,4.75,7.8,7.8,0,0,1-5.31,1.73,9,9,0,0,1-4.22-1,6.9,6.9,0,0,1-2.9-2.7,7.72,7.72,0,0,1-1-4h4.15q0,3.87,4,3.87a3.44,3.44,0,0,0,2.3-.7A2.4,2.4,0,0,0,538.58,205.22Z"/><path class="cls-9" d="M561.6,188l5.15,16.93L571.88,188h5.44v23.35h-4.15V205l.41-11-5.42,17.4h-2.84L559.92,194l.41,11v6.38h-4.14V188Z"/><path class="cls-9" d="M592.37,206.54h-7.25l-1.38,4.81h-4.4L586.82,188h3.83l7.51,23.35h-4.4Zm-6.13-3.9h5l-2.52-8.74Z"/><path class="cls-9" d="M616.22,211.35h-4.14L604,196v15.36H599.9V188H604l8.07,15.4V188h4.12Z"/><path class="cls-9" d="M621.56,216.11l-2.08-1.27.49-1a9.35,9.35,0,0,0,.95-3.9v-3.59h3.37l0,3.21a9.4,9.4,0,0,1-.77,3.59A9.26,9.26,0,0,1,621.56,216.11Z"/><path class="cls-10" d="M332.45,256.07l7.3,24,7.27-24h7.69v33.08h-5.87v-9l.58-15.61-7.68,24.65h-4l-7.66-24.63.59,15.59v9h-5.86V256.07Z"/><path class="cls-10" d="M376,282.33H365.77l-2,6.82h-6.23l10.59-33.08h5.43l10.65,33.08H378Zm-8.69-5.52h7.11l-3.58-12.38Z"/><path class="cls-10" d="M392.93,289.15h-5.86V256.07h5.86Z"/><path class="cls-10" d="M412.91,280.47a3.72,3.72,0,0,0-1.17-3,14.19,14.19,0,0,0-4.22-2.18,27.58,27.58,0,0,1-4.82-2.27q-4.84-3-4.85-8.2a9,9,0,0,1,1.3-4.78,8.77,8.77,0,0,1,3.74-3.28,12.26,12.26,0,0,1,5.46-1.18,11.34,11.34,0,0,1,5.43,1.28,9.23,9.23,0,0,1,3.7,3.63,10.62,10.62,0,0,1,1.32,5.31h-5.86a4.85,4.85,0,0,0-1.24-3.53,4.6,4.6,0,0,0-3.45-1.26,4.82,4.82,0,0,0-3.34,1.06,3.52,3.52,0,0,0-1.2,2.78,3.32,3.32,0,0,0,1.4,2.7,14.47,14.47,0,0,0,4.11,2,17.14,17.14,0,0,1,7.29,4.34,9.43,9.43,0,0,1,2.29,6.45,8.49,8.49,0,0,1-2.8,6.74,11,11,0,0,1-7.52,2.44,12.7,12.7,0,0,1-6-1.4,9.94,9.94,0,0,1-4.11-3.82,11,11,0,0,1-1.42-5.64h5.89q0,5.47,5.62,5.48a4.9,4.9,0,0,0,3.26-1A3.42,3.42,0,0,0,412.91,280.47Z"/><path class="cls-10" d="M448.38,282.33H438.1l-2,6.82h-6.23l10.59-33.08h5.43l10.64,33.08h-6.23Zm-8.69-5.52h7.11l-3.58-12.38Z"/><path class="cls-10" d="M464.9,277.49v11.66H459V256.07h11.09a11.32,11.32,0,0,1,5.64,1.37,9.24,9.24,0,0,1,3.74,3.87,12.08,12.08,0,0,1,1.31,5.71,10.24,10.24,0,0,1-2.86,7.67q-2.86,2.81-7.92,2.8Zm0-5.52h5.23a4.68,4.68,0,0,0,3.55-1.27,5,5,0,0,0,1.22-3.63,6,6,0,0,0-1.23-3.93,4.28,4.28,0,0,0-3.4-1.55H464.9Z"/><path class="cls-10" d="M490.5,277.49v11.66h-5.86V256.07h11.1a11.29,11.29,0,0,1,5.63,1.37,9.19,9.19,0,0,1,3.74,3.87,12.08,12.08,0,0,1,1.31,5.71,10.24,10.24,0,0,1-2.86,7.67q-2.87,2.81-7.92,2.8Zm0-5.52h5.24a4.66,4.66,0,0,0,3.54-1.27,5,5,0,0,0,1.22-3.63,6,6,0,0,0-1.23-3.93,4.27,4.27,0,0,0-3.39-1.55H490.5Z"/><path class="cls-10" d="M520.77,277h-4.66v12.11h-5.86V256.07h10.56c3.36,0,6,.88,7.78,2.62s2.73,4.2,2.73,7.38a11.42,11.42,0,0,1-1.26,5.64,9,9,0,0,1-3.82,3.6l6.16,13.52v.32h-6.29Zm-4.66-5.52h4.72a4.43,4.43,0,0,0,3.42-1.31,5.08,5.08,0,0,0,1.21-3.6,5.51,5.51,0,0,0-1.14-3.68,4.37,4.37,0,0,0-3.51-1.34h-4.7Z"/><path class="cls-10" d="M552.69,274.81H541.44v8.86h13.2v5.48H535.58V256.07h19v5.52H541.44v7.89h11.25Z"/><path class="cls-10" d="M581,289.15h-5.86l-11.41-21.76v21.76h-5.86V256.07h5.86l11.43,21.81V256.07H581Z"/><path class="cls-10" d="M606.77,261.59h-8.71v27.56H592.2V261.59h-8.6v-5.52h23.17Z"/><path class="cls-10" d="M616.14,289.15h-5.86V256.07h5.86Z"/><path class="cls-11" d="M304.52,343.21h-8.84v-42.8h8.84Z"/><path class="cls-11" d="M319.3,335.27h15.45v7.94H310.43v-42.8h8.87Z"/><path class="cls-11" d="M347.11,335.27h15.44v7.94H338.23v-42.8h8.88Z"/><path class="cls-11" d="M394.3,300.41v28a18.12,18.12,0,0,1-1.75,8.25,12.18,12.18,0,0,1-5,5.31,15.59,15.59,0,0,1-7.71,1.82q-6.72,0-10.59-4.06t-3.95-11.11V300.41h8.93v28.43q.15,7,5.61,7A5,5,0,0,0,384,334.1q1.41-1.77,1.41-5.73v-28Z"/><path class="cls-11" d="M418.56,331.83a4.56,4.56,0,0,0-1.37-3.52,16.35,16.35,0,0,0-4.84-2.62,42,42,0,0,1-5.67-2.62q-7.15-4.08-7.15-11.22a11.18,11.18,0,0,1,1.78-6.28,11.84,11.84,0,0,1,5-4.23,17.22,17.22,0,0,1,7.33-1.52,15.1,15.1,0,0,1,7.12,1.65,11.82,11.82,0,0,1,4.89,4.69,13.64,13.64,0,0,1,1.75,6.95h-8.85a5.64,5.64,0,0,0-1.38-4.06,4.92,4.92,0,0,0-3.73-1.44,5.48,5.48,0,0,0-3.75,1.22,3.92,3.92,0,0,0,.14,6.09,18,18,0,0,0,5.33,2.76,30.53,30.53,0,0,1,6.27,3.07,12.59,12.59,0,0,1,6,11,11.14,11.14,0,0,1-3.64,8.81q-3.65,3.21-10,3.21a17.38,17.38,0,0,1-8.1-1.87,12.77,12.77,0,0,1-5.46-5.11,15,15,0,0,1-1.84-7.48h8.9q0,3.44,1.53,5.07c1,1.08,2.68,1.63,5,1.63a5.17,5.17,0,0,0,3.48-1.1A3.89,3.89,0,0,0,418.56,331.83Z"/><path class="cls-11" d="M460.62,308.38h-11v34.83H440.7V308.38H429.86v-8h30.76Z"/><path class="cls-11" d="M477.78,328.07H473v15.14h-8.87v-42.8h14.48q6.56,0,10.24,3.38t3.69,9.54a15.79,15.79,0,0,1-1.55,7.4,11.71,11.71,0,0,1-4.87,4.76l7.69,17.28v.44h-9.51Zm-4.8-7.93h5.61a4.67,4.67,0,0,0,3.81-1.55,6.6,6.6,0,0,0,1.27-4.32,6.69,6.69,0,0,0-1.29-4.35,4.59,4.59,0,0,0-3.79-1.57H473Z"/><path class="cls-11" d="M518.53,335.22H506.37l-2.12,8h-9.48l13.5-42.8h8.34l13.6,42.8h-9.53Zm-10-8h7.91l-4-14.85Z"/><path class="cls-11" d="M558.49,308.38h-11v34.83h-8.87V308.38H527.73v-8h30.76Z"/><path class="cls-11" d="M584.8,325H570.85v10.23h16.48v7.94H562v-42.8h25.4v8H570.85v9H584.8Z"/><path class="cls-11" d="M619.56,300.41v28a18.25,18.25,0,0,1-1.75,8.25,12.18,12.18,0,0,1-5,5.31,15.64,15.64,0,0,1-7.71,1.82q-6.74,0-10.6-4.06t-3.94-11.11V300.41h8.92v28.43q.16,7,5.62,7a5.06,5.06,0,0,0,4.17-1.76q1.41-1.77,1.41-5.73v-28Z"/><path class="cls-11" d="M638.51,328.07h-4.8v15.14h-8.88v-42.8h14.49q6.54,0,10.24,3.38t3.69,9.54a15.66,15.66,0,0,1-1.56,7.4,11.69,11.69,0,0,1-4.86,4.76l7.68,17.28v.44H645Zm-4.8-7.93h5.61a4.65,4.65,0,0,0,3.8-1.55,6.6,6.6,0,0,0,1.28-4.32,6.69,6.69,0,0,0-1.29-4.35,4.61,4.61,0,0,0-3.79-1.57h-5.61Z"/><path class="cls-11" d="M663.23,333.6a4.45,4.45,0,0,1,3.36,1.39,5.44,5.44,0,0,1,0,7.15,4.76,4.76,0,0,1-6.74,0,5.45,5.45,0,0,1,0-7.11A4.46,4.46,0,0,1,663.23,333.6Z"/><path class="cls-12" d="M561.79,145.83c.75-4.2-.22-7.83-3.58-10.63-.31-.26-.29-.38,0-.62a5.89,5.89,0,0,1,6.42-1,9.36,9.36,0,0,1,5.16,5.26,16.17,16.17,0,0,1,1.4,7.57,22.41,22.41,0,0,1-8.88,17.5,9.3,9.3,0,0,1-6.15,2.05,10.45,10.45,0,0,1-5.66-2.09A21.26,21.26,0,0,1,542.35,152a20.22,20.22,0,0,1-.8-7.58,11.63,11.63,0,0,1,4.08-8.39,9.52,9.52,0,0,1,13.2,1.29,13,13,0,0,1,3,8.11Z"/><path class="cls-13" d="M558,127.89a10.06,10.06,0,0,1-.48,5.24c-.4,1.09-.39,1.09-1.43.6a8.41,8.41,0,0,0-.82-.35c-.32-.09-.41-.18-.19-.49a5.74,5.74,0,0,0-.59-7.31c-.21-.2-.15-.31,0-.47a4.12,4.12,0,0,1,2.07-1,.49.49,0,0,1,.63.35,5,5,0,0,0,5.59,3.35,8.56,8.56,0,0,0,2.64-.68,33.33,33.33,0,0,1,4.6-1.87,7.67,7.67,0,0,1,5.85.43,7.23,7.23,0,0,1,3.37,4.1,16.55,16.55,0,0,1-.81,13.32c-.2.4-.39.44-.8.26a12.67,12.67,0,0,1-5.76-5.52c-1.09-1.91-2-3.92-2.89-5.9a4.5,4.5,0,0,0-4.52-2.78,14.56,14.56,0,0,1-4.64-.48,11.73,11.73,0,0,1-1.79-.85s-.08-.07-.11,0S558,127.87,558,127.89Z"/><path class="cls-13" d="M390.31,133.89H379.23L386,115h13Z"/><path class="cls-11" d="M422.09,162.91l-1.58-5.74h-10.7l-1.64,5.74H397.91l10.37-36.56H422l10.32,36.56Zm-9.55-15.46h5.24l-2.62-9.29Z"/><path class="cls-11" d="M461.05,143.26a11.36,11.36,0,0,1,2.76,3.62,10.35,10.35,0,0,1,1,4.55,10.21,10.21,0,0,1-.92,4.34,11.28,11.28,0,0,1-2.48,3.52,11.71,11.71,0,0,1-8.1,3.21H436V126.3h15.13a11.83,11.83,0,0,1,4.53.88,12.25,12.25,0,0,1,3.78,2.38,11.29,11.29,0,0,1,2.57,3.51,10,10,0,0,1,.95,4.29A9.83,9.83,0,0,1,461.05,143.26ZM446,135v4.6h5.19A2.85,2.85,0,0,0,453,139a2,2,0,0,0,0-3.24,2.8,2.8,0,0,0-1.81-.68Zm7.29,18.56a2.29,2.29,0,0,0,1.68-.7,2.25,2.25,0,0,0,.7-1.63,2.17,2.17,0,0,0-.7-1.6,2.34,2.34,0,0,0-1.68-.67H446v4.6Z"/><path class="cls-11" d="M490.17,149.46l5,13h-9.83l-4.1-9.73h-3.68v9.73H467.53V126.3H481a14,14,0,0,1,9.8,3.88,13.49,13.49,0,0,1,3,4.21,12.79,12.79,0,0,1-.19,10.7A13.35,13.35,0,0,1,490.17,149.46ZM481,143.41a4,4,0,0,0,2.87-1.13,3.75,3.75,0,0,0,0-5.48,4,4,0,0,0-2.87-1.14h-3.4v7.75Z"/><path class="cls-11" d="M507.67,162.5h-9.83V126.3h9.83Z"/><path class="cls-11" d="M525.28,163.48a14.72,14.72,0,0,1-5.78-1.14,15.3,15.3,0,0,1-4.72-3.08,14.58,14.58,0,0,1-3.22-4.55,13.28,13.28,0,0,1-1.19-5.56v-9.56a13.28,13.28,0,0,1,1.19-5.56,14.58,14.58,0,0,1,3.22-4.55,15.48,15.48,0,0,1,4.72-3.08,14.72,14.72,0,0,1,5.78-1.14,15,15,0,0,1,5.86,1.14,15.2,15.2,0,0,1,4.76,3.06,14.35,14.35,0,0,1,3.21,4.53,13.21,13.21,0,0,1,1.19,5.55h-9.83a4.67,4.67,0,0,0-1.51-3.47,5.16,5.16,0,0,0-3.68-1.45,5,5,0,0,0-3.59,1.46,4.71,4.71,0,0,0-1.49,3.48v9.62a4.71,4.71,0,0,0,1.49,3.48,5,5,0,0,0,3.59,1.46,5.12,5.12,0,0,0,3.68-1.45,4.65,4.65,0,0,0,1.51-3.46h9.83a13.27,13.27,0,0,1-1.19,5.55,14.58,14.58,0,0,1-3.21,4.53,15.56,15.56,0,0,1-4.76,3.06A15.18,15.18,0,0,1,525.28,163.48Z"/><path class="cls-11" d="M606.05,126.3v9.36H595.78V162.5H586V135.66H575.69V126.3Z"/><path class="cls-11" d="M367.32,153.21h14.52v9.29H357.56V126.59h9.76Z"/><path class="cls-11" d="M452.71,52V66.8H436.46v42.48H420.9V66.8H404.65V52Z"/><path class="cls-11" d="M522.5,52V66.8H506.25v42.48H490.69V66.8H474.44V52Z"/><path class="cls-11" d="M478.39,72.56A21.13,21.13,0,0,0,471.77,68a20.46,20.46,0,0,0-16.24,0A21.33,21.33,0,0,0,442.8,87.64a20.85,20.85,0,0,0,1.63,8.26,21.23,21.23,0,0,0,11.1,11.29,20.46,20.46,0,0,0,16.24,0,21.27,21.27,0,0,0,6.62-4.56,21.51,21.51,0,0,0,4.47-6.73,20.85,20.85,0,0,0,1.64-8.26,21.47,21.47,0,0,0-6.11-15.08ZM473.83,92a11.59,11.59,0,0,1-2.4,3.64,11.74,11.74,0,0,1-3.51,2.48,10.5,10.5,0,0,1-8.55,0A11.68,11.68,0,0,1,453.46,92a11.94,11.94,0,0,1,0-8.9,11.72,11.72,0,0,1,2.4-3.63A12,12,0,0,1,459.37,77a10.5,10.5,0,0,1,8.55,0,12,12,0,0,1,3.51,2.49,11.54,11.54,0,0,1,2.4,3.63,11.82,11.82,0,0,1,0,8.9Z"/><path class="cls-11" d="M553.08,79.33A21.19,21.19,0,0,0,542,68a20.44,20.44,0,0,0-16.23,0A21.33,21.33,0,0,0,513,87.64a20.85,20.85,0,0,0,1.63,8.26,21.23,21.23,0,0,0,11.1,11.29,20.44,20.44,0,0,0,16.23,0,21.23,21.23,0,0,0,11.1-11.29,20.85,20.85,0,0,0,1.63-8.26A21.2,21.2,0,0,0,553.08,79.33Zm-9,12.71a11.68,11.68,0,0,1-5.91,6.12,10.5,10.5,0,0,1-8.55,0A11.68,11.68,0,0,1,523.68,92a11.94,11.94,0,0,1,0-8.9,11.72,11.72,0,0,1,2.4-3.63A12,12,0,0,1,529.59,77a10.5,10.5,0,0,1,8.55,0,12,12,0,0,1,3.51,2.49,11.72,11.72,0,0,1,2.4,3.63,11.94,11.94,0,0,1,0,8.9Z"/></g></g></svg>