<svg xmlns="http://www.w3.org/2000/svg" viewBox="0 0 1110.57 613.75"><defs><style>.cls-1{fill:#fff;}.cls-2{fill:#e4a531;}.cls-3{fill:#313979;}.cls-4{fill:#313879;}.cls-5{fill:#efc67d;}.cls-6{fill:#fcf6f3;}</style></defs><title>Asset 12</title><g id="Layer_2" data-name="Layer 2"><g id="Layer_1-2" data-name="Layer 1"><path class="cls-1" d="M826.15,84.42C813.87,72,790.06,48.41,755,35.87c-15.71-5.62-27.41-6.77-47-8l-6.74-.4c-27.75-1.63-34.35,6.65-34.63,7a16.75,16.75,0,0,0-1.46,2.9c-2.83,7.28-1,17.1,5.25,23.9s15.3,12,20.69,12.34c21.7,1.45,59.19-7.25,89.68,10.27C831.12,112.87,860,118.62,826.15,84.42Z"/><path class="cls-2" d="M704.45,35.37A27.36,27.36,0,0,0,708,27.9l-6.74-.4c-27.75-1.63-34.35,6.65-34.63,7a16.75,16.75,0,0,0-1.46,2.9c4.7,4.54,10.35,7.94,16.34,8.49C694.07,47.08,701.71,39,704.45,35.37Z"/><path class="cls-3" d="M836.29,109.9c-12.43,0-39.58-14.39-56.56-24.15-21.84-12.54-47.59-11.3-68.28-10.3a192.75,192.75,0,0,1-20.51.31c-6-.39-15.73-6.11-22.08-13-6.54-7.12-8.87-17.84-5.66-26.08a18.89,18.89,0,0,1,1.65-3.27c.78-1.08,7.84-9.69,36.52-8l6.74.4c20.5,1.26,31.87,2.47,47.59,8.09C792,46.89,816.08,71.25,827.64,83c16.68,16.85,16.39,22.17,14.28,24.91C840.83,109.28,838.88,109.9,836.29,109.9Zm-106-39.23c16.85,0,35.12,2,51.56,11.46,39.1,22.47,55.15,25.32,56.79,23.18,0,0,2.13-3.19-13.93-19.41h0c-11.35-11.49-35-35.39-70.38-48.06C739.08,32.4,728,31.22,707.85,30l-6.73-.41c-25.54-1.48-32.32,5.62-32.8,6.17a14.63,14.63,0,0,0-1.22,2.44c-2.65,6.8-.66,15.74,4.84,21.73,6.29,6.84,14.91,11.38,19.28,11.67a189.8,189.8,0,0,0,20-.32C717.23,71,723.63,70.67,730.25,70.67Z"/><path class="cls-1" d="M861.39,94.22c-12.81-14.77-37.65-42.86-75.92-59.46-17.13-7.42-30.1-9.58-51.9-12.36l-7.49-.95C696.3,17.71,687.8,25.73,687,26.67A18,18,0,0,0,685,29.89c-3.71,7.94-2.37,19,4.11,27.09,6.35,7.89,16.19,14.5,22.2,15.3,24.11,3.23,66.63-3.72,99.4,18.09C864.85,126.38,896.68,134.93,861.39,94.22Z"/><path class="cls-2" d="M702.65,40.58c14,2.22,23.09-6.27,26.42-10.09a31,31,0,0,0,4.5-8.09l-7.49-.95C696.3,17.71,687.8,25.73,687,26.67A18,18,0,0,0,685,29.89C689.94,35.31,696,39.52,702.65,40.58Z"/><path class="cls-3" d="M871.92,123.35c-3.47,0-9-1.36-18.38-5.64-11.6-5.33-26.8-14.18-44-25.6C786.06,76.45,757.18,75.94,734,75.52c-8.42-.15-16.36-.29-22.91-1.16s-17-8-23.55-16.07C680.79,49.92,679,37.88,683.13,29a21.28,21.28,0,0,1,2.14-3.59l.12-.15c.92-1,9.84-9.8,41-5.89l7.49.94c20.8,2.65,34.71,4.82,52.47,12.52C825.77,50,850.89,78.93,863,92.85h0c13.47,15.54,17.82,24.35,14.11,28.57C876.21,122.4,874.8,123.35,871.92,123.35ZM688.55,28a16,16,0,0,0-1.62,2.76c-3.5,7.48-1.92,17.72,3.84,24.88,6.55,8.14,15.92,13.89,20.84,14.55,6.31.84,14.14,1,22.44,1.13,23.75.42,53.3,1,77.85,17.28,40.64,27.05,59.63,32.77,62,30,.12-.13,2.76-3.57-14.13-23.06-11.87-13.69-36.57-42.17-75.17-58.91-16.68-7.23-29-9.36-51.34-12.21l-7.48-.94C697.52,20,689.24,27.34,688.55,28Z"/><path class="cls-1" d="M916.82,245.71c-16.44-26.28-7-72.83-28.17-120.69-7.72-17.39-22.94-50.51-58.47-74.3-15.93-10.67-29.55-15.18-52.85-21.92l-8-2.31c-33-9.48-41.23-5.25-46.44-1.69a27.84,27.84,0,0,0-3.63,2.95c-7.79,7.44-11.34,19-7.71,28.39,3.57,9.2,6,10.65,12.42,12.55,25.7,7.61,52.87,4.82,103.61,50.64,48.24,43.54,36.82,133.07,6.14,166.72-66.52,73-146.83,54.26-146.83,54.26s-16.77-6.55-22.78,2.88c-3.81,6-3,13.95.69,21.46.47,1,1,1.9,1.53,2.83,10,16.62,33.32,18.49,50,19.8l.41,0c8,.57,39.18,1.11,77.49-16.05,26.27-11.78,45.88-32.17,64-33.82,10.32-.95,38.08,13.95,38.08,13.95l52.54-75S937.78,279.24,916.82,245.71Z"/><path class="cls-3" d="M681.58,358.31c-5.75,0-12,2.71-16.81,6.34.47,1,1,1.9,1.53,2.83,10,16.62,33.32,18.49,50,19.8l.41,0c-1-6.63-3.76-13.91-8.28-18C705.61,366.74,696.15,358.41,681.58,358.31Z"/><path class="cls-2" d="M734.22,41.81c14.72,4.78,28.86-2.25,34.36-5.56a48.3,48.3,0,0,0,8.75-7.45l-8-2.31c-33-9.48-41.23-5.25-46.44-1.69a27.84,27.84,0,0,0-3.63,2.95C722.3,34.16,727.21,39.54,734.22,41.81Z"/><path class="cls-3" d="M722.94,389.6c-3,0-5.21-.12-6.39-.2l-.42,0c-17.31-1.37-41-3.24-51.62-20.81-.56-.94-1.1-1.94-1.62-3-4.31-8.75-4.52-17.32-.57-23.51,6.58-10.35,23.21-4.49,25.14-3.77,1.75.38,21.18,4.34,47.73.15,25.52-4,63.06-16.62,97-53.8,17.12-18.79,27.5-54.45,25.83-88.74-1.52-31.23-12.83-57.88-31.83-75-40.3-36.39-65.15-41.71-87.08-46.4-5.44-1.16-10.57-2.26-15.73-3.79-7.25-2.15-10.1-4.33-13.77-13.8-3.79-9.8-.42-22.41,8.21-30.65a30.56,30.56,0,0,1,3.9-3.17c6.21-4.24,15.56-8,48.2,1.41l.52.14,7.51,2.17c22.23,6.43,36.92,11.13,53.44,22.19,36.77,24.62,51.92,58.78,59.21,75.19,11.17,25.2,13.91,49.84,16.33,71.59,2.18,19.66,4.07,36.64,11.71,48.84h0c19.39,31,29.65,29.75,29.76,29.74l5.49-1.42-3.34,4.67L896.9,354.11l-1.64-.88c-7.57-4.06-29-14.48-36.9-13.7-9.93.9-20.57,7.9-32.9,16-9,5.9-19.16,12.59-30.41,17.64C762.8,387.61,735.52,389.6,722.94,389.6Zm-47.7-49.42c-3.68,0-7.36.95-9.39,4.14-3.15,4.93-2.86,12,.79,19.41.47.94,1,1.84,1.46,2.67,9.49,15.73,31.95,17.5,48.36,18.8l.26,0c6,.43,37.5,1.65,76.62-15.87,10.94-4.91,21-11.5,29.83-17.32C836,343.62,847,336.36,858,335.36c9.46-.85,31.37,10.08,37.61,13.32l49.48-70.63c-5.33-1.59-15.47-7.94-30-31.23h0c-8.14-13-10.08-30.43-12.32-50.6-2.38-21.44-5.08-45.75-16-70.35-7.12-16.06-22-49.47-57.71-73.41-15.48-10.37-28.41-14.75-52.27-21.65l-7.51-2.17-.51-.14c-33.48-9.62-40.5-4.84-44.69-2a27.11,27.11,0,0,0-3.37,2.74c-7.44,7.11-10.4,17.85-7.2,26.12,3.35,8.65,5.33,9.6,11.06,11.3,5,1.48,10.06,2.56,15.42,3.71,22.44,4.8,47.87,10.25,89,47.39,19.84,17.9,31.63,45.57,33.21,77.93,1.72,35.33-9.1,72.2-26.92,91.75-34.77,38.15-73.35,51.05-99.59,55.16-28.47,4.45-48.43-.08-49.27-.27l-.28-.09A35,35,0,0,0,675.24,340.18Z"/><rect class="cls-2" x="852.67" y="280.91" width="109.27" height="46.25" transform="translate(161.42 903.45) rotate(-57.31)"/><path class="cls-3" d="M897.89,365.4l-42.44-27.24,61.27-95.49,42.45,27.24Zm-36.66-28.5,35.4,22.72,56.76-88.45L918,248.45Z"/><path class="cls-3" d="M1083.61,345.92,966,275.16l-62,94.7,121.38,71.89a56.06,56.06,0,0,0,77-18.8h0A56.07,56.07,0,0,0,1083.61,345.92Z"/><circle class="cls-1" cx="887.74" cy="334.53" r="8.32"/><path class="cls-4" d="M364.87,551.73a3,3,0,0,0,1.2,1.67l.54.26a3.07,3.07,0,0,0,1.18.24,2.76,2.76,0,0,0,.57-.06,2.61,2.61,0,0,0,1.68-1.09,6.81,6.81,0,0,0,.76-1.37,4.69,4.69,0,0,0,.24-1.84,2.82,2.82,0,0,0-.83-2,3,3,0,0,0-1.93-.87,2.87,2.87,0,0,0-2,.64,2.56,2.56,0,0,0-.93,2v.09h0A2.4,2.4,0,0,0,364.87,551.73Z"/><path class="cls-4" d="M597.64,574.31a2.42,2.42,0,0,0,.86,2.15,3,3,0,0,0,1.92.75h.15l.45-.08a3,3,0,0,0,1.55-.81,2.66,2.66,0,0,0,.8-1.84,6.81,6.81,0,0,0-.13-1.56,4.67,4.67,0,0,0-.8-1.65,2.73,2.73,0,0,0-1.76-1.19,2.86,2.86,0,0,0-2.08.33,2.8,2.8,0,0,0-1.34,1.65,2.58,2.58,0,0,0,.33,2.16Zm1.38.17Z"/><path class="cls-4" d="M782.11,506.05a2.55,2.55,0,0,0-.89-1.95,2.81,2.81,0,0,0-2.35-.47,3.08,3.08,0,0,0-2.46,3.12,32.38,32.38,0,0,1-.95,9.68,34.05,34.05,0,0,1-3.26,8.11,35,35,0,0,1-4.75,6.52,45.45,45.45,0,0,1-5.5,5,44,44,0,0,1-5.33,3.58,47.27,47.27,0,0,1-4.44,2.23c-1.75.76-3.16,1.32-4.45,1.76l-1.07.34a25.64,25.64,0,0,0,3.24-10.5c.35-5.33-.86-8.71-3.74-10.1a5.66,5.66,0,0,0-5.23.69,14.12,14.12,0,0,0-4.87,6.51,26.11,26.11,0,0,0-1.72,5.93,22.14,22.14,0,0,0-6.11-2,12.1,12.1,0,0,0-4.3,0,7.05,7.05,0,0,0-3.53,1.77,5.7,5.7,0,0,0-1.8,5,9.3,9.3,0,0,0,2.34,4.81,14.33,14.33,0,0,0,6.88,4,26,26,0,0,0,6.07,1q-1.95,1.77-4.16,3.42a53.47,53.47,0,0,1-8.08,4.85,55.25,55.25,0,0,1-10.64,4,42.93,42.93,0,0,1-10.2,1.36h-.18a32.82,32.82,0,0,1-9-1.2,25.63,25.63,0,0,1-6-2.57,2.47,2.47,0,0,0-.57-1,2.77,2.77,0,0,0-2-.82,2.87,2.87,0,0,0-1.71.45,3,3,0,0,0-1.28.88,2.93,2.93,0,0,0-.68,2,2.47,2.47,0,0,0,.25,1c-.46,2.76-1,5.41-1.47,7.88a33,33,0,0,1-2.08,6.76c-1.71,3.41-2.89,3.9-3.21,4s-1.58.07-4.16-2.88a37.82,37.82,0,0,1-3.15-4.23c-1-1.63-2.1-3.32-3.07-5-.34-.64-.71-1.34-1.13-2.07a7.32,7.32,0,0,0-1.75-2.18,3.31,3.31,0,0,0-2.31-.75,3.65,3.65,0,0,0-1.32.36,4.09,4.09,0,0,0-1.87,1.85,12,12,0,0,0-.83,2.92l0,.16c0,.6-.07,1.26-.11,2a2.7,2.7,0,0,0-1.16-1.08h0a3,3,0,0,0-3.49.65,3.17,3.17,0,0,0-.81,1.08,12.4,12.4,0,0,1-2.94,2.64,15.9,15.9,0,0,1-3.63,1.8,10.79,10.79,0,0,0-2.14-2.68,8.72,8.72,0,0,0-3.54-1.92,7.77,7.77,0,0,0-4.06,0,8,8,0,0,0-3.64,2.06,5.47,5.47,0,0,0-1.49,3.12,2.94,2.94,0,0,0-1,.17,3.21,3.21,0,0,0-1.2.33,2.65,2.65,0,0,0-1.35,1.62,16.48,16.48,0,0,0-.83,4.58c0,.55,0,1.08,0,1.6-.28.9-.56,1.78-.87,2.63a24.4,24.4,0,0,1-3.26,6.41c-1.53,2.19-3.08,3.47-4.6,3.79a2.67,2.67,0,0,1-.56.08,2.75,2.75,0,0,1-1.88-.72,12.34,12.34,0,0,1-1.72-1.84,17,17,0,0,1-1.92-4.68c-.42-1.56-.74-3.22-1-4.87.06-.21.14-.4.21-.61a2.53,2.53,0,0,0-.23-2.2,2.71,2.71,0,0,0-1.79-1.21,3.07,3.07,0,0,0-2,.2,2.66,2.66,0,0,0-1.54,1,3,3,0,0,0-.63,2c0,.15.06.3.08.45-.69,2.05-1.44,4.06-2.27,6a34.26,34.26,0,0,1-3.28,6.1,18.76,18.76,0,0,1-3.23,3.66,3.07,3.07,0,0,1-2,.93h-.14a1.28,1.28,0,0,1-.51-.17,2.78,2.78,0,0,1-.9-.78,12,12,0,0,1-1.35-2,34,34,0,0,1-2.53-7.12c-.18-.8-.35-1.63-.53-2.47l.21-.62a2.78,2.78,0,0,0-.08-1.69,31.78,31.78,0,0,0,2-6.9,42.9,42.9,0,0,0,.5-5.54l4.29-1.23a3,3,0,0,0,1.67-1.23,2.55,2.55,0,0,0,.32-2.17,2.73,2.73,0,0,0-1.35-1.6,2.76,2.76,0,0,0-2.12-.23l-3.24.93a21.73,21.73,0,0,0-1.16-4.33,9.66,9.66,0,0,0-2.53-4,3.89,3.89,0,0,0-2.51-1,3.42,3.42,0,0,0-1.6.4,5.84,5.84,0,0,0-.92.72,4.12,4.12,0,0,0-1,1.6,9.65,9.65,0,0,0-.5,2.32,24.16,24.16,0,0,0,0,3.43l0,.64c0,.59,0,1.19.09,1.78l.08,1.13-4.19,1a3,3,0,0,0-1.71,1.14,2.56,2.56,0,0,0-.43,2.16,2.69,2.69,0,0,0,1.16,1.61,2.85,2.85,0,0,0,1.93.43l.16,0,3.52-.85c.42,4.46.92,8.33,1.51,11.68a51.22,51.22,0,0,1-3,6.83,31.78,31.78,0,0,1-3.67,5.57,13.13,13.13,0,0,1-3.31,2.94,4.48,4.48,0,0,1-2.25.75,3.86,3.86,0,0,1-2.87-2.07,16.92,16.92,0,0,1-2.18-6.64,2.69,2.69,0,0,0-1.15-1.66,2.59,2.59,0,0,0-.57-.3,2.64,2.64,0,0,0,.63-2.7,10.92,10.92,0,0,0-3.42-5.23,7.11,7.11,0,0,0-5.6-1.63,9.44,9.44,0,0,0-6.66,4.5c-.09.14-.16.3-.24.44a28.2,28.2,0,0,1-4.19,2.35,7.1,7.1,0,0,1-3.68.67,5.8,5.8,0,0,1-1.89-.56,9,9,0,0,1-1.68-1.08,11.4,11.4,0,0,1-1.4-1.38c-.46-.53-.85-1-1.21-1.52a19.74,19.74,0,0,0-1.65-1.87,4,4,0,0,0-2.67-1.13,3.85,3.85,0,0,0-1.27.24,3.45,3.45,0,0,0-1.5,1.09,15.22,15.22,0,0,0-2.53,4.49,2.72,2.72,0,0,0-1.48-1.52h0a3.12,3.12,0,0,0-1.6-.29,3.2,3.2,0,0,0-1.18.13,2.87,2.87,0,0,0-1.65,1.27,2.41,2.41,0,0,0-.31,1.61c-1.1,1.86-2.25,3.69-3.47,5.44a34.93,34.93,0,0,1-4.45,5.29,18.48,18.48,0,0,1-3.91,2.92,3.16,3.16,0,0,1-2.14.5l-.15,0a1.29,1.29,0,0,1-.46-.26,2.93,2.93,0,0,1-.71-1,11.72,11.72,0,0,1-.9-2.26,33.48,33.48,0,0,1-1-7.49c0-.9,0-1.84,0-2.79a2.53,2.53,0,0,0,.48-1.78,32.67,32.67,0,0,0,3.45-6.54,43.22,43.22,0,0,0,1.64-5.32l4.44-.33a2.87,2.87,0,0,0,1.87-.86,2.52,2.52,0,0,0,.77-2.06,2.75,2.75,0,0,0-1-1.84,2.83,2.83,0,0,0-2-.66l-3.34.25a22.12,22.12,0,0,0-.25-4.47,9.65,9.65,0,0,0-1.63-4.49,3.79,3.79,0,0,0-2.26-1.44,3.34,3.34,0,0,0-1.64.06,5.73,5.73,0,0,0-1.06.51,4.16,4.16,0,0,0-1.28,1.37,9.42,9.42,0,0,0-1,2.16,24,24,0,0,0-.73,3.36l-.1.59c-.1.6-.21,1.2-.29,1.8l-.15,1.12c-1.48.05-2.53.08-4.3.11a3,3,0,0,0-1.91.77,2.48,2.48,0,0,0-.86,2,2.7,2.7,0,0,0,.8,1.82,2.86,2.86,0,0,0,1.8.81h.16c1.48,0,2.44-.06,3.62-.11-.46,4-.75,7.53-.89,10.67a7.85,7.85,0,0,1-1,.57,21.25,21.25,0,0,1-3.21,1.29c-1.22.38-2.55.72-4,1-1.23.25-2.46.49-3.68.7-.53-.43-1.08-.85-1.62-1.23-.35-.24-.69-.5-1-.75s-.71-.53-1.07-.78l-.71-.5c-.59-.42-1.19-.83-1.74-1.25q-.44-.34-.81-.69a13.86,13.86,0,0,0,3.26-4.47c1.19-2.77.69-4.71.05-5.86a4.71,4.71,0,0,0-1.87-1.86,4.07,4.07,0,0,0-2.78-.44,6.08,6.08,0,0,0-4.2,2.9,14.05,14.05,0,0,0-2.08,6,6.6,6.6,0,0,0,.44,3.42c-1.78,2.27-3.55,4.36-5.28,6.2a27.89,27.89,0,0,1-5.59,4.75,16,16,0,0,1-3.08,1.43,3.65,3.65,0,0,1-2.56,0,2.5,2.5,0,0,1-1.4-1.24,11.71,11.71,0,0,1-1-2.41,13.78,13.78,0,0,1-.38-3c-.05-1.24,0-2.55,0-3.88s.2-2.68.35-4,.27-2.61.33-3.74a2.73,2.73,0,0,0-.64-1.9,3.1,3.1,0,0,0-3.68-.72,2.34,2.34,0,0,0-1.25,1.6,51.92,51.92,0,0,1-2.84,7.66,30.65,30.65,0,0,1-2.82,4.89,11.89,11.89,0,0,1-2.33,2.51,3.29,3.29,0,0,1-1.37.72l-.15,0a7.67,7.67,0,0,1-.54-1,7.51,7.51,0,0,1-.3-2.95,25.26,25.26,0,0,1,.66-4.86,43.44,43.44,0,0,1,1.23-4.26l.51-.54a2.56,2.56,0,0,0,.68-2.11A2.72,2.72,0,0,0,432,581a3.18,3.18,0,0,0-2-.63h0a2.84,2.84,0,0,0-1.35.18,2.89,2.89,0,0,0-1.53,1.32l-.08.17c-.08.21-.14.42-.21.62-1.47,1.62-3,3.2-4.51,4.68a30.36,30.36,0,0,1-5.38,4.28,18.13,18.13,0,0,1-4.46,2,3.16,3.16,0,0,1-2.22,0l-.14-.06a1.42,1.42,0,0,1-.38-.35,2.92,2.92,0,0,1-.5-1.07,12,12,0,0,1-.4-2.4,34.11,34.11,0,0,1,.57-7.53c.18-.91.37-1.85.58-2.81l.13-.13a2.58,2.58,0,0,0,.79-1.56,32.41,32.41,0,0,0,5.53-7.08,38.39,38.39,0,0,0,3.08-6.77,26.14,26.14,0,0,0,1.23-6.16,9.4,9.4,0,0,0-.71-4.86,3.84,3.84,0,0,0-1.87-1.84,3.48,3.48,0,0,0-1.62-.27,5.56,5.56,0,0,0-1.14.27,4.24,4.24,0,0,0-1.57,1,10,10,0,0,0-1.42,1.92,19.3,19.3,0,0,0-1.43,3.16,178.23,178.23,0,0,0-6.32,19.48c-1.59,1.56-3.21,3.08-4.86,4.5a30.43,30.43,0,0,1-5.62,4,18.67,18.67,0,0,1-4.57,1.8,3.27,3.27,0,0,1-2.24-.08l-.13-.08s-.13-.07-.37-.37a3.11,3.11,0,0,1-.44-1.09,12.92,12.92,0,0,1-.28-2.43,29,29,0,0,1,.31-3.94,27.32,27.32,0,0,1,.67-3.55c.22-.84.45-1.72.69-2.61l.26-.26a2.55,2.55,0,0,0,.86-1.59,32.82,32.82,0,0,0,5.86-6.7,38.65,38.65,0,0,0,3.45-6.6,25.46,25.46,0,0,0,1.56-6.08,9.37,9.37,0,0,0-.44-4.9,3.77,3.77,0,0,0-1.78-1.93,3.43,3.43,0,0,0-1.59-.36,5.22,5.22,0,0,0-1.16.2,4.28,4.28,0,0,0-1.63,1,9.48,9.48,0,0,0-1.53,1.83A19.88,19.88,0,0,0,390,550.5,176.56,176.56,0,0,0,382.53,570a70.3,70.3,0,0,1-5.51,4.62,24,24,0,0,1-6.28,3.56c-2.5,1-4.52,1.2-6,.63a3.16,3.16,0,0,1-.52-.25,2.72,2.72,0,0,1-1.19-1.64,11.39,11.39,0,0,1-.44-2.49,16.15,16.15,0,0,1,1-5,47.72,47.72,0,0,1,1.89-4.77l.17-.12a2.59,2.59,0,0,0,1.21-1.75,2.87,2.87,0,0,0-.73-2.24,3,3,0,0,0-1.58-.93,2.69,2.69,0,0,0-2.08-.14,2.89,2.89,0,0,0-1.65,1.36.2.2,0,0,0,0,.08,31.58,31.58,0,0,1-7.19,3.23,32.65,32.65,0,0,1-8.44,1.34,33.14,33.14,0,0,1-7.86-.75,43.54,43.54,0,0,1-7-2.15,44.45,44.45,0,0,1-5.69-2.76,48.69,48.69,0,0,1-4.11-2.69c-1.53-1.12-2.71-2-3.73-2.94l-.83-.75a25.24,25.24,0,0,0,10.65-2.53c4.75-2.39,7.05-5.15,6.82-8.31a5.58,5.58,0,0,0-3.2-4.17,14,14,0,0,0-8-.9,25.91,25.91,0,0,0-6,1.51,21.77,21.77,0,0,0-1.34-6.3,12.57,12.57,0,0,0-2.21-3.7,7.1,7.1,0,0,0-3.31-2.16,5.71,5.71,0,0,0-5.26,1,9.33,9.33,0,0,0-3,4.46,14.41,14.41,0,0,0,0,8,26.83,26.83,0,0,0,2.23,5.74,51.18,51.18,0,0,1-5.06-1.88,53.66,53.66,0,0,1-8.34-4.59,56.28,56.28,0,0,1-9-7.28,44.26,44.26,0,0,1-6.5-8.28,35.05,35.05,0,0,1-3.78-8.68,25.55,25.55,0,0,1-.89-8.45,2.74,2.74,0,0,0-.63-2.13,3.2,3.2,0,0,0-1.85-1.11,3,3,0,0,0-2.06.36,2.34,2.34,0,0,0-1.17,1.92A29.65,29.65,0,0,0,265.28,517a36.74,36.74,0,0,0,1.93,5.22,43.92,43.92,0,0,0,2.82,5.18,51.66,51.66,0,0,0,7.34,9,66.51,66.51,0,0,0,9.49,7.69,60,60,0,0,0,10.31,5.55,51.89,51.89,0,0,0,10.62,3.19,45.75,45.75,0,0,0,4.09,4.31,58.65,58.65,0,0,0,5.28,4.39c1,.72,2.11,1.46,3.41,2.24,1.13.69,2.32,1.35,3.54,2h0a46.49,46.49,0,0,0,16,4.88,40.05,40.05,0,0,0,4.5.25,38.25,38.25,0,0,0,8.5-.94,39.29,39.29,0,0,0,4.63-1.38,19.76,19.76,0,0,0-1,5.56,10.51,10.51,0,0,0,1.5,5.91,11.12,11.12,0,0,0,2.9,3c.27.16.52.3.76.42s.54.25.88.39a12.53,12.53,0,0,0,4.34.73h.15a17.31,17.31,0,0,0,6-1.29,31.13,31.13,0,0,0,7.22-4.1c-.77,6.18.51,10.32,3.81,12.22a6.85,6.85,0,0,0,1.63.8,8.69,8.69,0,0,0,2.74.42,18.6,18.6,0,0,0,8.62-2.66,36.87,36.87,0,0,0,5.72-4c-.55,6.47.95,10.69,4.42,12.44a6.67,6.67,0,0,0,1.66.7,8.42,8.42,0,0,0,2.21.29c2.59,0,5.61-1.06,9-3.16a32.65,32.65,0,0,0,4-3c0,.37,0,.74-.06,1.09-.11,3.52.73,6.19,2.53,7.94a6.67,6.67,0,0,0,2.48,1.48,5.79,5.79,0,0,0,3,.21c2.64-.46,5.16-2.33,7.53-5.57.07.41.16.81.26,1.19,1,3.86,3,6.38,5.95,7.51a3.24,3.24,0,0,0,1,.35l.48.08.22,0a8.75,8.75,0,0,0,1.63.14,15,15,0,0,0,7.73-2.54c.57-.36,1.16-.76,1.74-1.2a5.12,5.12,0,0,0,0,1.41,5.24,5.24,0,0,0,2.36,3.18,13.47,13.47,0,0,0,5.8,2,21.33,21.33,0,0,0,2.49.14l1.25,0c.62,0,1.35-.09,2.17-.2a14.57,14.57,0,0,0,2.64-.66,16.62,16.62,0,0,0,2.63-1.2,8.63,8.63,0,0,0,2.44-2c2.18-2.45,2.37-4.68,1.86-6.45.75-.14,1.5-.29,2.24-.45,1.34-.29,2.63-.61,3.81-.95q1.11-.33,2.07-.72c.05,1.08.11,2.12.21,3.07.72,6.86,3.08,10.88,6.93,11.91a6.46,6.46,0,0,0,1.77.35h.42c3,0,6.34-1.72,9.89-5.13a41.24,41.24,0,0,0,5-6c.17-.24.32-.48.48-.72,0,.2.07.4.1.6.2,1.44.36,2.81.46,4.07,0,.4.07.78.11,1.13.07.78.13,1.45.12,1.85,0,.17,0,.34-.06.52s-.06.4-.07.58a3.74,3.74,0,0,0,.08,1.4,2.58,2.58,0,0,0,.93,1.33c.14.1.25.19.33.26l.23.2.29.09a4,4,0,0,0,1.08.19h0a3.29,3.29,0,0,0,1.88-.57,2.76,2.76,0,0,0,1.07-1.69,5.42,5.42,0,0,0,.07-1.26c0-.25,0-.53,0-.83s.12-1.07.23-1.81c.07-.42.14-.87.2-1.34.22-1.6.46-3,.73-4.39a57.84,57.84,0,0,1,1.59-6.13c.24-.73.47-1.38.7-2l.89,1.07a15.26,15.26,0,0,0,2.12,2,16.28,16.28,0,0,0,2.75,1.73,11.29,11.29,0,0,0,3.59,1,15,15,0,0,0,6-.56l.28-.1c0,.5-.13,1-.15,1.51a13.07,13.07,0,0,0,2.37,8.61,9.56,9.56,0,0,0,3.19,2.94,8.32,8.32,0,0,0,4,1.07h.16a8,8,0,0,0,7-4,9.16,9.16,0,0,0,.57-.86,8.71,8.71,0,0,0,3.48,2.84,10.5,10.5,0,0,0,3.3.85,6.77,6.77,0,0,0,1.45,0,12.47,12.47,0,0,0,4.19-1.35,16.72,16.72,0,0,0,5-4.12,32.47,32.47,0,0,0,4.41-6.81c2.11,5.86,5.11,9,8.87,9.17a5.64,5.64,0,0,0,.82,0,6.37,6.37,0,0,0,1-.07c3.1-.48,6.15-2.88,9-7.13a37.69,37.69,0,0,0,2.9-5.21A16.7,16.7,0,0,0,604,599.6a10.55,10.55,0,0,0,4.45,4.13,10.8,10.8,0,0,0,4.06.94c.31,0,.59,0,.85-.06s.59-.08.95-.15a12.61,12.61,0,0,0,4-1.76,16.74,16.74,0,0,0,4.36-4.44,24.43,24.43,0,0,0,2.06-3.41,12.74,12.74,0,0,0,1.83,2.15,9.8,9.8,0,0,0,6.66,2.66,11.28,11.28,0,0,0,2.93-.4,8.82,8.82,0,0,0,4.43-2.77,11.76,11.76,0,0,0,2.54-5,18,18,0,0,0,.49-5,20.6,20.6,0,0,0-.52-4c.57-.2,1.15-.43,1.73-.69a19.84,19.84,0,0,0,3.11-1.71c.61-.41,1.19-.86,1.76-1.33.28.58.57,1.14.83,1.72q1.28,2.79,2.28,5.14c.27.66.56,1.39.87,2.17.43,1.06.88,2.21,1.39,3.4a2.67,2.67,0,0,0,2.5,1.69,3.28,3.28,0,0,0,1.16-.23,3.51,3.51,0,0,0,1.54-1.17,2.42,2.42,0,0,0,.4-2.2,41.27,41.27,0,0,1-1.07-5.69c-.3-2.2-.5-4.44-.61-6.64,0-.57,0-1.11-.06-1.63.57,1,1.15,1.89,1.72,2.81a38.21,38.21,0,0,0,3.56,4.83c.7.74,1.38,1.42,2,2a13.85,13.85,0,0,0,2.08,1.57,7.34,7.34,0,0,0,5.7,1l.89-.31c2.54-.93,4.72-3.27,6.5-7a36.54,36.54,0,0,0,2.47-7.77c.37-1.7.72-3.51,1.06-5.4a29.52,29.52,0,0,0,5.53,2,34.19,34.19,0,0,0,5.35,1,39.9,39.9,0,0,0,4.55.25l1.22,0a49.27,49.27,0,0,0,11.23-1.72A63.54,63.54,0,0,0,724,564.33a59.67,59.67,0,0,0,9.9-6.06,53.37,53.37,0,0,0,8.08-7.56,46.31,46.31,0,0,0,5.8-1.37,57.56,57.56,0,0,0,6.49-2.39c1.14-.5,2.35-1.1,3.69-1.83,1.17-.64,2.36-1.34,3.52-2.09h0A48.43,48.43,0,0,0,774,531.52a40.83,40.83,0,0,0,6.2-11.77A39.52,39.52,0,0,0,781.8,513,34.92,34.92,0,0,0,782.11,506.05Zm-56.63,36.34a5.13,5.13,0,0,1-1.14-1.85c-.05-.2-.05-.3-.06-.32l.08-.07A4.22,4.22,0,0,1,727,540a15.65,15.65,0,0,1,3.14.89,24.22,24.22,0,0,1,4.79,2.66,3.26,3.26,0,0,0,4.23-1,2.49,2.49,0,0,0,.44-1.49,26.78,26.78,0,0,1,.68-5.2,28.93,28.93,0,0,1,1.1-3.51,9,9,0,0,1,2.26-3.57,5,5,0,0,1,.26.66,11.69,11.69,0,0,1,.23,4.06,18.63,18.63,0,0,1-1.53,6.08,29.23,29.23,0,0,1-3.45,5.88,26.59,26.59,0,0,1-8.29-.37A9.86,9.86,0,0,1,725.48,542.39Zm-90.86,36.07-.38,0a11,11,0,0,1-1.65,0l-.44-.12a2.63,2.63,0,0,1,.65-.26A2,2,0,0,1,634.62,578.46ZM628,587.82a11.72,11.72,0,0,1-.21-1.3c.33-1.18.64-2.39.92-3.61a8,8,0,0,0,2.54.87,13,13,0,0,0,3.18.16c.91,0,1.88-.13,2.91-.26a16.53,16.53,0,0,1,.38,3.09,15.17,15.17,0,0,1-.3,3.61c-.12.35-.26.74-.42,1.18a4.44,4.44,0,0,1-.56,1,4.51,4.51,0,0,1-.84.95,2.13,2.13,0,0,1-.89.47,4.23,4.23,0,0,1-4-1,7.28,7.28,0,0,1-1.6-2.16A13.29,13.29,0,0,1,628,587.82ZM546.4,600.7a17.41,17.41,0,0,1,.59-3.93,13.08,13.08,0,0,1,.85-2.21,2.78,2.78,0,0,0,.5-.91,5.51,5.51,0,0,1,1.2-1.4,2.94,2.94,0,0,1,1.29-.58l.2,0a1.58,1.58,0,0,1,1.1.53,6.51,6.51,0,0,1,1.5,2.63,2.81,2.81,0,0,0,1.4,1.56l.19.1a2.67,2.67,0,0,0-.77,1.82,22.46,22.46,0,0,1-.76,5.29,10.51,10.51,0,0,1-1.19,2.67,5.14,5.14,0,0,1-1,1.14,1.55,1.55,0,0,1-1,.31,2.57,2.57,0,0,1-1.22-.39,4.47,4.47,0,0,1-1.32-1.23A7.83,7.83,0,0,1,546.4,600.7Zm-80.07,2.89a20.37,20.37,0,0,1,3-1.1c1.13-.31,2.39-.59,3.73-.82l3.39-.57a1.28,1.28,0,0,1,.16.59,2.71,2.71,0,0,1-.77,1.47c-1,1.2-3,1.89-5.73,2.05a14.41,14.41,0,0,1-3.44-.22,7.5,7.5,0,0,1-1.78-.52A5.74,5.74,0,0,1,466.33,603.59Zm1.83-9.4c.24.2.47.41.73.6.72.56,1.46,1.11,2.26,1.68-1.08.22-2.12.47-3.07.74a27.47,27.47,0,0,0-3.45,1.12Q466.39,596.4,468.16,594.19ZM306.63,534.3a4.78,4.78,0,0,1,1-1.91c.14-.15.24-.2.24-.22l.12,0a4.42,4.42,0,0,1,1.45,2.24,15.23,15.23,0,0,1,.82,3.16,24.29,24.29,0,0,1,.11,5.49,2.92,2.92,0,0,0,1.45,2.63,3,3,0,0,0,1.51.54,2.61,2.61,0,0,0,1.52-.38,26.26,26.26,0,0,1,4.82-2,30.91,30.91,0,0,1,3.57-.83,8.92,8.92,0,0,1,4.17.14,5.09,5.09,0,0,1-.43.55,11.69,11.69,0,0,1-3.38,2.26,18.24,18.24,0,0,1-6,1.76,29,29,0,0,1-6.78,0,27.06,27.06,0,0,1-3.88-7.36A9.91,9.91,0,0,1,306.63,534.3Z"/><path id="bg" class="cls-2" d="M604.57,169.2H577.78V129.47L540.93,99a.23.23,0,0,0-.38.18v70H416v51.11l54.73,37.19L470.92,396s-3.89,73.85,52.57,95.55c76.06,29.24,114.87,1.8,114.87,1.8s1-37.4-2.64-47.83c-4.13-11.73-36.34-31.92-36.34-31.92s-4.49,4.93-21.6,6.14V257.5h26.87Z"/><path class="cls-3" d="M589.46,507.25c-17.61,0-39.85-3.38-66.72-13.71-57.22-22-53.94-96.86-53.9-97.61l-.25-137.32-54.73-37.19V167.1H538.45V99.16a2.33,2.33,0,0,1,3.81-1.8l37.61,31.12V167.1h26.79l.08,92.49H579.87V417.5c13.92-1.33,18-5.26,18-5.3L599,411l1.46.86c1.34.84,32.87,20.72,37.2,33,3.76,10.68,2.79,47,2.75,48.58l0,1.05-.85.6C638.52,495.84,621.8,507.25,589.46,507.25ZM418,219.2l54.73,37.19L473,396a132.88,132.88,0,0,0,5.06,39.18c7.89,27.38,23.42,45.69,46.16,54.42,38.69,14.87,67.34,14.63,84.56,11.81,15.48-2.54,24.75-7.56,27.49-9.22.14-6.23.62-37-2.54-46-3-8.66-24.64-23.91-34.22-30.05-2.48,1.71-8.59,4.74-21.6,5.65l-2.24.16V255.41h26.87l-.08-84.12H575.69V130.45L542.64,103.1v68.19H418Z"/><path id="jumelles" class="cls-1" d="M604.3,169.2H540.76c-.13-25.67-.21-50-.21-70.54h-44.4a24.58,24.58,0,0,0-24.59,24.58v46H410.21L416,220.31h55.61V395.93s-1.81,45.81,42.52,67c35.78,17.09,85.3-2.64,85.3-2.64V417.63s-24.3,8.75-40.4-.85c-15.29-9.13-16.49-31.52-16.49-31.52s-.68-70.77-1-106.14c-.16-18.73-.31-38.7-.45-58.81h57.45Z"/><path class="cls-3" d="M548.64,472c-11.63,0-24.2-1.76-35.46-7.14-45.06-21.52-43.72-68.49-43.71-69V222.4H414.08l-6.21-55.3h61.6V123.24a26.71,26.71,0,0,1,26.68-26.68h46.49v2.1c0,18.41.07,41.43.2,68.44h63.8l-6.26,55.3h-57.2c.13,19.4.28,38.63.43,56.7.29,35.38,1,106.14,1,106.14s1.34,21.31,15.47,29.74c15,9,38.39.77,38.63.68l2.79-1v47l-1.32.53a157.86,157.86,0,0,1-29.67,7.85A134.32,134.32,0,0,1,548.64,472ZM417.82,218.22h55.84V395.93c0,.53-1.2,44.79,41.32,65.1,31.33,15,74.28.7,82.31-2.21V420.49c-7,2-25.74,6.22-39.38-1.92-16.06-9.58-17.46-32.24-17.51-33.2,0-.09-.69-70.86-1-106.24-.15-18.73-.3-38.69-.44-58.81v-2.1h57.68l5.3-46.93H538.68v-2.08c-.14-26.9-.21-49.92-.22-68.46h-42.3a22.52,22.52,0,0,0-22.49,22.49v48.05H412.55Z"/><circle class="cls-1" cx="711.77" cy="207.47" r="120.59"/><path class="cls-3" d="M711.77,330.15A122.68,122.68,0,1,1,834.45,207.47,122.81,122.81,0,0,1,711.77,330.15Zm0-241.18a118.5,118.5,0,1,0,118.5,118.5A118.64,118.64,0,0,0,711.77,89Z"/><circle class="cls-5" cx="716.09" cy="218.68" r="77.74"/><path class="cls-2" d="M712.86,229.84c-.29-2.23-2.48-3.72-3.36-4.33-3.24-2.22-5.33-.75-8.17-2.88-1.14-.85-1.88-2.17-3.37-4.81-2.59-4.59-1.93-5.48-3.61-7.45-.87-1-1-.74-8.17-4.33-4.72-2.37-.32-2.49-7.93-4.33-1.9-.46-2.39-2.61-3.61-2.4s-1.27,2-2.88,2.88a5.86,5.86,0,0,1-6.73-1.44c-1.56-1.94-1.54-3.42-1.69-7.21-.07-1.87-1.6-2.08-1.44-3.13.3-1.94,3.26-2.49,3.13-3.84,0-.26.74,0-1-1.09-2.89-1.76-4.82,3.27-5.24-3a9.15,9.15,0,0,1,2.88-7c3.23-2.83,8.73-3.57,11.54-1.2s3.47,6.66,4.13,6.63-1.79-5.73,1.4-9.28c1.19-1.33,1.79-1,9.61-4.32,4.25-1.82,4.15-2,5.29-2.17,4.21-.76,6.09,1,8.66-.48,1.92-1.13,2.08-2.85,3.6-2.88,1.68,0,2.18,2,3.61,1.92,2.07-.15,4.1-4.68,2.88-6.25-.68-.88-2.08-.42-2.4-1.2-.47-1.16,2.45-2.55,2.16-4.33a3.12,3.12,0,0,0-3.12-2.16c-1.26.09-1.32,1.16-3.13,1.92s-2.4-.06-3.84.72-1.28,2.08-2.89,2.89a3.66,3.66,0,0,1-3.6,0c-1.38-1-1.08-3.4-.72-4.57.93-3.08,4.5-5.35,6.72-4.59.72.25.56.57,1.42,1,2.25,1,3.88-.94,6-.08,1.3.53,1.08,1.41,2.22,1.66,2,.45,4.82-1.81,4.82-3.79,0-1.25-1.3-3.38-1-4,.45-.79,3.26-.47,3.64.52.31.8-1.16,2.73-2,4.54-1.68,3.81,1.74,8.42,2.14,8.94.93,1.25,1.39,1.87,2,1.9,2.38.08,3.09-6.8,7.12-7.67,1.42-.31,2.16.37,3.4-.32,2.16-1.19,2.29-5.89,2.29-5.89s21.13,7.3,25.11,10.91c1,.92-3.61-1.61-5.46-.08-1.54,1.28-1.19,4.36-.5,6.13.31.79.88,2.24,2.07,2.56,1,.29,1.8-.49,2.57,0s.31,1.15.91,1.82c1.08,1.23,3.17-.08,4.14,1,.25.29.24.53.24,4,0,1.81,0,1.79,0,1.83-.3,2.33-2.62,4.3-4.71,5.21-3.58,1.56-6.19-.1-6.87,1.16s1.79,4.08,3.06,5.46,2.14,2.3,3.64,2.73,3.88.55,5-.82c1.59-1.86-.23-5.27.83-5.8.88-.44,2.14,1.93,4.55,1.82,1.22-.05,1.91-.7,2.32-.33.63.58-.84,2.3-.08,3.64a2.08,2.08,0,0,0,2.31,1c.85-.37.77-1.81,1.16-1.82.59,0,.74,3.27,1.82,3.47s1.82-2.05,2.57-1.82c.53.17.19,1.34.91,2.32.83,1.14,2.22.83,3.73,1.41,2.72,1,4.74,4.55,4,6s-4.19,1.32-6.79.16c-3.93-1.74-3.7-5.15-7.45-6.37-1.33-.44-1.27,0-5.46-.17-5.6-.25-5.23-1-7.37-.74-4.44.62-4.35,3.8-10.43,5.63a9.63,9.63,0,0,0-3.89,1.65,7.25,7.25,0,0,0-2.32,8.2c1.43,5-3,8.34-2.73,13.08.32,5.1,8.34,10.79,13.82,11.62,4.58.7,7.26-1.94,9.61.71.58.66,1.3,2,2.48,2s2-1.48,2.15-1.08c2.41,7-1.82,6.87-.92,12.93.55,3.64,2.07,5.59,1.89,8.42-.12,2-2.14,2.67-5.22,6.21-2.5,2.89-2.27,4.58-2.16,6.2.14,2.11,1.13,2.34,1.3,4.47s-.78,4.05-2.31,6.92c-2,3.69-3.67,5.24-3,6.49.52,1,2.42.74,2.16,1.3-.68,1.52-8.56,6.48-19.46,9.81a79.84,79.84,0,0,1-22.64,3.89,73.53,73.53,0,0,1-21.2-2.6c-8.32-2.29-14.89-4.21-17.89-10.1-.42-.83-2.48-5.1-1.06-9.55,1.34-4.2,5.42-8,10.89-12.14,1.85-1.39,1.67-6.74,6.52-9.72,3.11-1.91,4.07-.77,6.57-2.76,5.35-4.23,1.92-6.8,6.63-11.21C712.54,234.48,713.23,232.57,712.86,229.84Z"/><path class="cls-2" d="M651.77,175.66c.58.25.51,4.43.13,7.87-.63,5.68,7,4.19,6.83,7.29-.09,1.46-1.51,2.29-1,3.39s1.73.59,2.75,1.74.17,2.49,1.15,4.26,2.35,1.32,3.39,2.88c1.44,2.14.37,5.23,0,6.28-1.15,3.35-3,3.35-4.25,6.93a14.87,14.87,0,0,0-.8,5,13.24,13.24,0,0,0,1.16,6.72c2.07,3.87,7.29,6.38,7.79,8.3a2.12,2.12,0,0,1-.07,1.44c-.23.44-.55.47-.72.72-.59.86,1.76,2.64,2.45,4.84s-1.06,3.12-1.51,7.29c-.32,2.93.52,3.06.5,6.85,0,4-.93,4.21-1.08,7.8a23.08,23.08,0,0,0,1.88,9.89c1.33,3.09,2.55,5.89,5.34,7.22C679,284,682,282.2,683,283.86c.85,1.36-.2,4.06-1.45,4.33-.75.16-1.4-.58-2.31-1.37-2-1.77-2.67-1.52-6.42-3.68a72.65,72.65,0,0,1-7.51-5.2c-8.45-6.57-15.46-19-16.83-21.45-3.41-6.16-5.94-10.67-8.07-20.48-3.16-14.56-1.91-28.37-.72-33.88,2.06-9.44,5.15-15.23,8.64-21.75C648.32,180.38,651,175.35,651.77,175.66Z"/><path class="cls-1" d="M726.87,172a44.25,44.25,0,0,0-50.48-43.78,44.22,44.22,0,0,0,25.88,80.08,44.71,44.71,0,0,0,6.27-.45A44.17,44.17,0,0,0,726.87,172Z"/><path class="cls-3" d="M716.09,298.52a79.84,79.84,0,1,1,79.83-79.84A79.93,79.93,0,0,1,716.09,298.52Zm0-155.48a75.65,75.65,0,1,0,75.65,75.64A75.73,75.73,0,0,0,716.09,143Z"/><circle class="cls-1" cx="682.63" cy="171.99" r="44.22"/><path class="cls-5" d="M658.05,164.07a44.17,44.17,0,0,1,18.34-35.86,44.22,44.22,0,1,0,32.15,79.63,44.71,44.71,0,0,1-6.27.45A44.22,44.22,0,0,1,658.05,164.07Z"/><circle class="cls-2" cx="678.55" cy="149.81" r="5.88"/><circle class="cls-2" cx="669.24" cy="204.86" r="3.43"/><circle class="cls-2" cx="708.54" cy="154.6" r="3.43"/><circle class="cls-2" cx="681" cy="175.95" r="3.43"/><circle class="cls-2" cx="653.66" cy="185.54" r="3.43"/><circle class="cls-2" cx="706.02" cy="183.43" r="7.48"/><path class="cls-3" d="M263.46,63,3.53,54.17a3.35,3.35,0,0,1-2.36-1.12A4.87,4.87,0,0,1,0,49.5L1.14,27.73C1.28,25.09,3,23,5.15,23l260.78-7.1Z"/><path class="cls-3" d="M682.63,218.3A46.31,46.31,0,1,1,728.94,172,46.36,46.36,0,0,1,682.63,218.3Zm0-88.44A42.13,42.13,0,1,0,724.76,172,42.17,42.17,0,0,0,682.63,129.86Z"/><polygon class="cls-1" points="261.52 20.18 203.69 21.76 203.04 56.77 259.5 58.7 261.52 20.18"/><path class="cls-1" d="M5.54,27.16a1.7,1.7,0,0,0-.22.79L4.19,49.72a1.21,1.21,0,0,0,0,.28l186.37,6.35.29-34.24Z"/><polygon class="cls-2" points="190.86 22.11 190.57 56.35 203.04 56.77 203.69 21.76 190.86 22.11"/><path class="cls-3" d="M234.37,25.5l0,.66a1.19,1.19,0,0,0,1.21,1.29L251.76,27c3.31,0,2.84-3.28-1.15-3.27l-14.93.39A1.4,1.4,0,0,0,234.37,25.5Z"/><circle class="cls-1" cx="297.2" cy="208.64" r="120.59"/><path class="cls-3" d="M297.2,331.32A122.69,122.69,0,1,1,419.88,208.64,122.82,122.82,0,0,1,297.2,331.32Zm0-241.18a118.5,118.5,0,1,0,118.5,118.5A118.63,118.63,0,0,0,297.2,90.14Z"/><circle class="cls-2" cx="297.2" cy="212.1" r="76.6"/><path class="cls-3" d="M297.2,290.79a78.69,78.69,0,1,1,78.69-78.69A78.78,78.78,0,0,1,297.2,290.79Zm0-153.2a74.51,74.51,0,1,0,74.51,74.51A74.59,74.59,0,0,0,297.2,137.59Z"/><circle class="cls-1" cx="265.04" cy="167.66" r="44.44"/><path class="cls-3" d="M265,214.19a46.53,46.53,0,1,1,46.53-46.53A46.58,46.58,0,0,1,265,214.19Zm0-88.88a42.35,42.35,0,1,0,42.35,42.35A42.4,42.4,0,0,0,265,125.31Z"/><path class="cls-3" d="M355.84,38.86C354,37,310.37-6.23,281.29.76,263.56,5,254.47,19.2,253.5,44.1c-.73,18.8,8.92,35.15,22.94,38.88a30,30,0,0,0,7.69,1c11.94,0,26.7-6.23,44-18.6A232.36,232.36,0,0,0,355.86,41.8l1.44-1.47Z"/><polygon class="cls-1" points="129.6 402.54 110.54 336.57 149.01 336.69 129.6 402.54"/><path class="cls-1" d="M321.8,25.6s-13.78-5-20.92-6.31c-8.1-1.54-16.69-1.44-24.79-2.39,2.52-1.43,6.38-3.58,11.13-3.94C303.8,11.71,321.8,25.6,321.8,25.6Z"/><path class="cls-3" d="M129.58,410l-21.82-75.54,44,.14Zm-16.25-71.34,16.29,56.4,16.59-56.29Z"/><path class="cls-3" d="M129.64,410.64l-11.95-41.8a15.08,15.08,0,0,1,11.8-6c7.6,0,12.09,6.35,12.09,6.35Z"/><path class="cls-3" d="M154.71,85.87c0,13.19-49,13-49-.15s11-23.85,24.56-23.81S154.75,72.68,154.71,85.87Z"/><path class="cls-6" d="M142.49,83.32l3.41-3.46-1.54-7.45a54,54,0,0,1,4.2,4.93,50,50,0,0,1,2.3,6Z"/><rect class="cls-1" x="107.64" y="102.08" width="44.34" height="233.42" transform="translate(258.92 437.99) rotate(-179.82)"/><rect class="cls-1" x="107.64" y="102.08" width="44.34" height="233.42" transform="translate(258.92 437.99) rotate(-179.82)"/><path class="cls-3" d="M153.7,337.67l-48.53-.15.75-237.61,48.52.16Zm-44.33-4.32,40.16.13.72-229.24-40.16-.13Z"/><rect class="cls-2" x="27.56" y="218.51" width="225.68" height="4.18" transform="translate(-80.66 360.29) rotate(-89.81)"/><rect class="cls-2" x="6.87" y="218.45" width="225.68" height="4.18" transform="translate(-101.22 339.53) rotate(-89.81)"/><rect class="cls-2" x="120.03" y="69.84" width="19.88" height="55.9" rx="1.39" transform="translate(31.77 227.46) rotate(-89.82)"/><path class="cls-3" d="M156.74,109.39h0l-53.12.87a3.49,3.49,0,0,1-3.54-3.42L99.8,89.73a3.47,3.47,0,0,1,3.4-3.53h0l53.12-.87a3.45,3.45,0,0,1,2.47,1,3.41,3.41,0,0,1,1.06,2.44l.28,17.11a3.48,3.48,0,0,1-3.41,3.53Zm-52.49-3.33,51.71-.84-.26-15.69L104,90.37Z"/><path class="cls-6" d="M152,94.38a1.8,1.8,0,0,0-1.38-1.89,1.47,1.47,0,0,0-1.28.45,2.13,2.13,0,0,0-.48,1.24v.09l.1,6.49c0,1.47.75,2.27,1.47,2.28h0c.79,0,1.65-1,1.66-2.74Z"/></g></g></svg>